/* XPM */
static char *result[] = {
/* columns rows colors chars-per-pixel */
"60 60 97 2 ",
"   c #008D00",
".  c #009500",
"X  c #009C00",
"o  c #00A400",
"O  c #00AC00",
"+  c #09AC00",
"@  c #09A60B",
"#  c #18A600",
"$  c #10AE00",
"%  c #15A90D",
"&  c #00B400",
"*  c #08B401",
"=  c #00BC00",
"-  c #01B40C",
";  c #0FB20A",
":  c #12BC00",
">  c #1CBF00",
",  c #0DB512",
"<  c #0CBB11",
"1  c #20BB00",
"2  c #00C400",
"3  c #0BC600",
"4  c #00CB00",
"5  c #0AC900",
"6  c #14C400",
"7  c #1BC400",
"8  c #1BC900",
"9  c #00D400",
"0  c #0DD300",
"q  c #00DB00",
"w  c #0BDC00",
"e  c #17D300",
"r  c #18D700",
"t  c #13DA00",
"y  c #1CDE00",
"u  c #26D400",
"i  c #25DC00",
"p  c #2FDC00",
"a  c #34DE00",
"s  c #38DE00",
"d  c #00E400",
"f  c #0BE300",
"g  c #00EC00",
"h  c #0CEB00",
"j  c #0EE00E",
"k  c #15E400",
"l  c #1DE400",
"z  c #13EB00",
"x  c #1BEC00",
"c  c #00F300",
"v  c #0BF300",
"b  c #00FC00",
"n  c #0AFD00",
"m  c #00F20A",
"M  c #02FC0A",
"N  c #09FE0A",
"B  c #13F401",
"V  c #1BF301",
"C  c #13FE00",
"Z  c #1BFD00",
"A  c #11FE0A",
"S  c #02FE10",
"D  c #0BFF13",
"F  c #0DF91D",
"G  c #16FB13",
"H  c #1CFF18",
"J  c #25E500",
"K  c #2CE500",
"L  c #22EB01",
"P  c #2EEB00",
"I  c #35E700",
"U  c #34EB00",
"Y  c #3AED00",
"T  c #23F400",
"R  c #2CF200",
"E  c #24FE00",
"W  c #2DFE00",
"Q  c #35F200",
"!  c #3CF300",
"~  c #33FD01",
"^  c #3CFD00",
"/  c #29E010",
"(  c #2CFC1C",
")  c #22FE2C",
"_  c #44EC00",
"`  c #55EA00",
"'  c #49F000",
"]  c #43FD00",
"[  c #4AFD00",
"{  c #52FC00",
"}  c #5AFD00",
"|  c #56EE1A",
" . c #41FB14",
".. c #59F615",
"X. c #63FB00",
"o. c #6CFF00",
"O. c #4FFB2E",
/* pixels */
"& & g b b 2 4 9 9 9 g c 4 2 O O o 9 q W E c 9 q 4 4 4 4 4 g d b b g c b d q q q q g g b C c d d 4 9 c C b 4 9 4 9 9 4 4 ",
"O & g b b 4 2 q 9 9 c b 4 4 & O O q d E E c 9 9 2 5 4 4 4 g d b b g b b d d q q q g g c b c q q 4 4 c C b 9 4 9 9 4 4 9 ",
"O & 2 9 q = = g c q 4 4 & = 9 d q q q 4 9 2 O & q q 2 2 2 4 4 q q 9 9 4 = = & & & 4 4 = 2 2 q q = & d n b g g 9 9 2 O O ",
"& & 4 q q = & b b g 2 4 = 2 d m c g d 4 4 2 & O g K 5 2 4 2 4 9 q 4 2 2 = & O O O 4 4 = 2 2 q t & O g b b Z n 9 9 4 O O ",
"& & 2 q 9 = = b b g 2 2 = O d b c g d 2 4 2 o o f L 4 2 2 = 2 9 9 2 2 2 = & O O O 4 4 = = = q f O O J b b C Z 9 9 2 o o ",
"q d g c g b b & = < O. .= 4 q q d c c d d 9 g d c g q d d O o 2 2 2 q q 2 2 g b c b c c b m = 2  .] 0 q q c c O O & 9 e ",
"d d g g g b b & & , | ..2 = 9 d q B c q d q d g c b q d q . X 2 2 2 w d 2 4 g V Z V B b b g 2 4 ] } q d q b c O O & q r ",
"c c g c b c g d d 9 = & 4 2 4 4 4 2 2 b b d 9 9 O & 9 d q O O     O c g C E w 9 4 O O & = 4 b b c h 9 9 4 g g q d 4 X X ",
"c c g c b c b d q q = = 2 4 4 4 4 2 4 b b c q 9 & O q q q O O X   O b c E { t q 9 & O & 2 2 b Z c b 9 q 9 g g q q 4 o o ",
"d d g d q d d 9 q 5 > 6 4 4 4 4 9 2 4 c c g 4 4 = & 4 q q O & O o & q d b E 5 4 2 O & 2 4 2 c b d g 4 9 4 9 9 2 4 2 X . ",
"9 9 2 2 = 2 = 2 2 8 } { V c b b b d d g J / O & d g d c g 4 4 g c 9 O & b b = & & O & b b b ~ b 4 9 4 4 4 O O X X X X X ",
"9 9 2 = = = 2 2 4 8 ^ ] z c c c c d d g g j & O g g g g g = 2 d g 9 o O b b 2 & & & & b b c n S 4 9 2 9 9 O O X o o X X ",
"d d c F b 2 2 2 4 2 o o = 2 & & & o o = = 2 b c = O & & & 2 4 X o o O & b b g c g c c = & & 2 = b b c b g = & d d 9 O O ",
"q q v n N = 2 4 4 2 o o 2 2 & & O O o = 2 4 b b & & = & = 4 4 X o X o & b b c c g c c & = & = = b b d b g = = d d 9 O O ",
"2 2 h n c q d O & & 2 9 d g = & & = = l x w 9 9 = 2 = = & V v O & = q 9 2 2 4 9 4 & & q d 9 4 2 4 9 d c c & = 9 9 4 4 2 ",
"4 9 R ~ W d h O o & q d b b 2 & & = 2 P Q P 4 4 = 2 2 2 = C C = 2 2 q d = = 4 4 4 o X g b d 4 4 4 9 c b b & & 9 4 4 q 9 ",
"4 4 V E W d g o O & q q c b = = O = = v b x 4 4 & = 2 5 = ~ Z = = = q q = = 4 4 4 o X g b q 4 4 2 2 g b c & O 4 4 4 9 9 ",
"d g g c c 2 2 q q 9 9 4 = & O o o c c b b q X X ~ Z q q 9 2 = 9 q 9 b b n W n b b = = g f g c c 4 4 * & O = = c c g & & ",
"d g g g g 2 2 9 q q 4 4 = 2 & O O c c c c q X X ) E 9 q 9 = = 4 9 4 b b b C n b M = = g d d c g 4 4 & O O 2 2 c c g & & ",
"b b O o o 9 9 2 4 = & O L Q q q 9 c g g g d d d 2 = 4 q 9 V c O & O O & g d 9 9 4 g g b b g O O 2 2 = = & b b = 2 4 c c ",
"b b & O O 4 9 2 4 = O o _ ' w q q c c d g d g d 2 = 9 9 9 T c O O o & & g g 9 9 9 g g b b g O O 2 4 = = * b b 4 4 4 c c ",
"b b & O & 2 4 5 3 2 & = d k d d q d g d d q d d 2 = 2 9 9 c q & & = & & d d q q 9 f d c c q & & & O = 2 2 c c 2 4 4 c g ",
"b b q q 4 d q P P d q q = & g b b = 2 b b n b c & = = 2 2 4 4 d g d 2 2 q 9 c b b W Z g g 9 2 2 O o g b E 9 9 d d g g d ",
"b b q 9 4 d q L P f d d & 2 g b b = = b b ~ c b & & = 2 = 2 4 d g q 2 2 q q c b b [ ^ q d d 4 = O O d b W q 9 K I g c g ",
"O O 0 d q q d b n c g g b b d c g 2 = X X o g g 2 = 9 q q J l T B g 9 9 g g b b c Y U = & : n C 2 2 g c c 4 4 . . O b c ",
"O O 9 q w d d b b c d g b b g h d 2 2 X . X g g = 1 4 d 9 s a Y B d 4 9 d g c b B K K O & > C Z 4 2 f c c 9 9 o o O c c ",
"d d g c d 4 4 4 4 4 q q & O 2 2 4 4 2 = = 2 9 q 4 4 d g d # $ 9 q 9 9 9 q d v T T = = 2 9 2 0 4 4 9 g b c 2 2 . X o 9 9 ",
"b c b b M q 9 = 4 4 g d o X = 4 4 9 9 4 4 4 4 9 9 q g c h o O q g q d d d d Q ~ D & & d q 9 4 4 q q b b b 2 2 X X O 9 q ",
"g c c b G 4 2 2 2 4 g q . X = 2 = 4 4 4 2 2 4 q 9 q d c g O O 9 d 4 q q q t V Z G & = q q 4 2 2 9 q d b V 2 2 X X O 9 9 ",
"9 4 4 4 2 9 q 2 4 2 9 2 = 2 4 q 9 n b 9 9 q 4 4 c g q q 4 q q o o o q 9 X X q g g c b c b g w 9 q 9 i I a 2 2 o o & b c ",
"4 9 4 2 2 9 4 2 2 2 9 2 = = 4 9 9 b b q 9 4 4 4 g g 9 9 9 d q o o O q 9 X X q g g b b b b c q q 9 q 9 y k 4 4 X o & c c ",
"9 q q c g g g = = = 4 4 2 2 o X X = = E ^ V d q 2 4 = = = q d & = 2 b b O o = 2 = & O = = 5 c d b b d 4 4 V g 9 q q q q ",
"q d g c c g g = 2 = 4 2 4 2 o o X 2 2 E ] T q q 4 2 2 4 2 d q & = 2 b b O O 2 4 2 O O 2 = 4 g c b b d q 9 z g q d q q 9 ",
"9 9 q g g d q 2 2 2 2 & 2 = o O o = 2 h x y q 9 2 4 & = & 0 9 2 2 2 c g O O = 2 2 = 2 2 4 4 f g b b 9 q 9 g d 9 9 9 9 9 ",
"t q R Z C 2 4 b b d O O & & = 4 2 9 9 & & = d d q 9 O X X 4 4 g b g q d 2 2 q d q b b c c V [ ^ b b 2 = = d q 2 4 2 9 9 ",
"9 9 c C C 4 4 b b d O O & = = 4 4 9 9 & & O 9 9 4 4 o o X 2 9 g c g q q 2 2 q d q b b n b C [ b c b 2 2 & q q = 2 2 q q ",
"O O X X X d d E b g = & ^ ! T b C d f 9 q 2 o o & & d c c 2 2 b b c 9 9 q q 4 2 2 b b b b b b c 2 2 d b c ] ] 2 2 4 4 9 ",
"o o X X X d i E b g & & ~ ~ T b C d d 9 q 2 X X & & d c c 2 2 b b c 9 9 q q 4 2 2 b b c b b b b 2 = d b g ] ^ 2 2 2 4 9 ",
"q q & O O 4 3 9 q 9 9 9 4 5 O O O 2 2 9 9 2 & & o o d b b Y Q 9 d q d q q q f g g q q 9 d q q 9 4 4 9 9 9 $ $ & & = 2 2 ",
"g g = = & = 2 4 9 4 q q 2 2 o X X 2 2 q q 4 = = O o g b b ^ ^ 4 9 9 g d g q v b b q q q q 9 9 9 9 9 9 0 q o X & & = = 2 ",
"g d = & o 4 4 2 4 4 q q 2 = o X X = = q q 9 = 2 o o d b b Z E 9 9 q d d d d c b b d q 9 9 9 9 4 9 q q q 9 X X = = & = 2 ",
"q d V A F O & c g d g d 9 4 g b b d d q q 4 O O q d c ^ n 2 5 d g q O = g g 4 2 2 4 q 9 9 2 o O & & q g g O O g d g b n ",
"d q V W ) & O g g d g d 4 9 c b b d d 9 q 4 O O q d c [ C 2 2 d g q O & c c 4 = 2 q 9 9 9 2 o o o O d c c O O g g g b T ",
"= = q q t ( H 4 e 9 c g 4 2 9 q q = = 2 = 4 q q b b O X o 9 9 O O O 9 9 b c c b c c c d d 9 = & O O d b b o X c b c 9 9 ",
"= = q w l [ ] 3 u 9 g g 2 4 9 q 9 = = 2 4 2 d d b b & . X 9 9 O o & q q b b c c c d g d c q 2 = O o d b b X X b b c 9 9 ",
"= = 4 q 9 _ _ 4 4 9 g d 4 4 4 4 4 & & 2 2 2 q 9 c c 2 % - 4 4 O O O 9 9 c g d d d f g q d 4 & & O o q g g , * g c g q q ",
"2 2 = = = 9 9 9 9 9 d g d g = & O o o g c g d f c c c W M & & = = O = = 4 4 4 4 2 [ [ q g 4 & & 9 d 4 9 2 ^ ] q q d b b ",
"2 2 = = & 9 4 9 9 9 g d g g = = O O O g c d d h g c b C b & & & = O = = 2 2 2 4 2 ] [ q d 9 & = 9 q 4 9 4 C ] 4 q q b b ",
"= = = = = 4 9 v Y g d d b b b b b c c O O O O & q q ! o.W q q 9 9 4 c c X X O * & c c 9 9 2 X X 2 4 g M b b c ] [ L & O ",
"= = = = = 9 9 d U f d d b b b b b b b o O o o & q d Q X.^ d q d q 9 c f X X O = = c c q 9 2 o X 2 2 g c b b c ^ { I & O ",
"= = = = = c m O @ O & = 4 2 g b c c c 4 9 4 z f c c c v c q 9 h c f q q = = q d q d d = = = 4 2 g g 9 9 q = = k z f d q ",
"= = 2 = = b C X o X & O = 4 g b b c c 9 q t ^ E b b c b c d q ^ ^ b d d 4 4 g c c g g = = = 9 q c b d q q O O g g c g c ",
"= = & & O ~ ~ X X X * O = = d n c c b q q d n E c c g c c 4 9 ] ] v q q 2 2 d g g d d = 2 = 9 4 c c 4 q 4 o O g g g g g ",
"E ] _ ` Q q d q d q b b g g O X X q q 4 4 2 9 9 n E w 9 4 O O [ [ R 4 4 q q 2 = 2 d g O o o & & o O O O o = = o o O 2 4 ",
"^ [ Y _ Y q q k t q b c d z + o X q q 2 2 2 q 9 n [ 0 2 4 O & W ~ R 4 9 9 q 2 = 2 g c O o o & = O o O & O = = o O O 2 2 ",
"d g * X . ~ E & & & = & 2 4 d g g = 2 b b g & & 9 9 o X X & O & & = = & O o 9 d q c c c c f Q v 2 2 g b c 9 9 b b g 9 4 ",
"h g O o o E W & = & = & 2 2 w g g 2 2 n b g = = 9 q o X X & & = = & = = O O 9 q q c c c B l Y B 2 2 c b b q d b b c 9 q ",
"g g & O O c V 3 4 2 2 = 9 4 q g g = = b b g O & q d & X X = = 2 2 = = 2 & & 9 q q d d d g d v c 2 4 g c c 4 9 g g d q q ",
"d g = & & 9 4 C n c 9 9 g g 9 9 4 & & b C K O o E b 0 4 2 b b c g d g d g c 9 4 4 = = 2 4 4 b b 9 9 9 9 4 O & O & = d g ",
"d d = & & q 4 C C c q q g h 4 9 4 = = E ~ P O O b b 0 2 2 b b c d d g d g c 9 4 4 = & = 2 4 b b 9 q 9 q 9 O & O & & g c "
};
