/* XPM */
static char *result[] = {
/* columns rows colors chars-per-pixel */
"60 60 200 2 ",
"   c #087C1D",
".  c #114B3E",
"X  c #0F5A36",
"o  c #11543D",
"O  c #115B3C",
"+  c #0C6A2B",
"@  c #0B7928",
"#  c #0F6D35",
"$  c #0E6334",
"%  c #10633A",
"&  c #166839",
"*  c #0E7332",
"=  c #21643A",
"-  c #162E4F",
";  c #143D47",
":  c #15334D",
">  c #153B4A",
",  c #183A4B",
"<  c #162D50",
"1  c #182F52",
"2  c #1C3254",
"3  c #203657",
"4  c #213758",
"5  c #253A5B",
"6  c #293E5E",
"7  c #134445",
"8  c #134B42",
"9  c #144148",
"0  c #125140",
"q  c #2B405F",
"w  c #2D4261",
"e  c #314664",
"r  c #344867",
"t  c #364A68",
"y  c #3B4E6C",
"u  c #3E516E",
"i  c #40536F",
"p  c #425571",
"a  c #465974",
"s  c #495B76",
"d  c #4C5E79",
"f  c #4E607A",
"g  c #52637D",
"h  c #009C00",
"j  c #04980C",
"k  c #078C1B",
"l  c #079C19",
"z  c #069617",
"x  c #04860F",
"c  c #00A300",
"v  c #00AC00",
"b  c #00B400",
"n  c #00BB00",
"m  c #03B70C",
"M  c #08A519",
"N  c #08B714",
"B  c #1AB31B",
"V  c #0B8829",
"C  c #0B9624",
"Z  c #148B2A",
"A  c #2A8D2D",
"S  c #12A622",
"D  c #00C400",
"F  c #00CC00",
"G  c #03C40A",
"H  c #0CC904",
"J  c #00D400",
"K  c #01DC00",
"L  c #08D505",
"P  c #17DA00",
"I  c #05C715",
"U  c #09D814",
"Y  c #1ECB0C",
"T  c #2ACF0F",
"R  c #00E300",
"E  c #0DE200",
"W  c #00EC00",
"Q  c #0DEA01",
"!  c #03E20B",
"~  c #16E700",
"^  c #01F300",
"/  c #00FD00",
"(  c #09FD01",
")  c #0BF202",
"_  c #14FE00",
"`  c #17F600",
"'  c #09FF16",
"]  c #22ED06",
"[  c #3BED00",
"{  c #33EC01",
"}  c #22FE00",
"|  c #2DFE00",
" . c #2CF400",
".. c #34FE00",
"X. c #3BFE00",
"o. c #44EC00",
"O. c #53E705",
"+. c #41FF00",
"@. c #49FD00",
"#. c #41FB14",
"$. c #52EE0F",
"%. c #4FFB2E",
"&. c #566680",
"*. c #5C6C84",
"=. c #576881",
"-. c #606F87",
";. c #63738A",
":. c #68778D",
">. c #69788E",
",. c #6D7C92",
"<. c #717F94",
"1. c #738196",
"2. c #79869B",
"3. c #7D8A9D",
"4. c #778499",
"5. c #199FD6",
"6. c #1CA0D7",
"7. c #20A2D7",
"8. c #24A4D8",
"9. c #2BA7D9",
"0. c #2EA8DA",
"q. c #33AADB",
"w. c #3CAEDD",
"e. c #40AFDD",
"r. c #45B2DE",
"t. c #4AB4DF",
"y. c #56B9E1",
"u. c #5BBBE2",
"i. c #53B7E0",
"p. c #4FB5E0",
"a. c #62BEE3",
"s. c #6AC1E4",
"d. c #67C0E4",
"f. c #75C6E7",
"g. c #7BC8E7",
"h. c #7DC9E8",
"j. c #78C7E7",
"k. c #828EA1",
"l. c #8691A4",
"z. c #8995A6",
"x. c #8B96A8",
"c. c #8E99AA",
"v. c #929DAD",
"b. c #95A0AF",
"n. c #97A1B1",
"m. c #9AA4B3",
"M. c #9FA8B7",
"N. c #A3ACBA",
"B. c #A9B2BE",
"V. c #A7B0BD",
"C. c #ACB5C2",
"Z. c #AFB8C4",
"A. c #B2BAC6",
"S. c #B6BEC9",
"D. c #B8BFCA",
"F. c #BBC2CC",
"G. c #B7C1CD",
"H. c #81CBE9",
"J. c #8CCFEB",
"K. c #95D3EC",
"L. c #9BD5ED",
"P. c #8DD0EB",
"I. c #A4D9EF",
"U. c #A1D6ED",
"Y. c #BCDFEF",
"T. c #A9DCF0",
"R. c #B1DEF1",
"E. c #BCE3F3",
"W. c #B6E1F2",
"Q. c #BEE0EF",
"!. c #C1C7D0",
"~. c #C4CAD3",
"^. c #C9CED6",
"/. c #C6CFD9",
"(. c #CCD1D9",
"). c #C7D3DC",
"_. c #D4D8DF",
"`. c #D0D5DC",
"'. c #C0C6CF",
"]. c #CCD8E1",
"[. c #CFDFE8",
"{. c #C8D6E0",
"}. c #D7DBE1",
"|. c #D9DDE3",
" X c #D0DFE8",
".X c #CBE2EE",
"XX c #D0E5EF",
"oX c #C4E7F5",
"OX c #CBE9F5",
"+X c #C7E8F5",
"@X c #D6EEF8",
"#X c #D3EAF5",
"$X c #DCF1F9",
"%X c #E9EDF0",
"&X c #E4F4FA",
"*X c #EAF6FC",
"=X c #EEF8FC",
"-X c #EDF2F5",
";X c #F5FAFD",
":X c #FEFFFF",
/* pixels */
"b b W / / D F J J F ^ / D D v v c J K | | Q m M @ % 8 9 : - - : 9 8 # V M I J K J W R / _ ^ R R F F ^ _ / F J F J F F F ",
"v b W / / F D J J J ^ ^ F F b v v K R ] S o , 5 < < 4 2 1 1 - - 5 &.u 2 1 : 7 V G W W / ( ^ K K F J ^ _ / J F J J J F J ",
"v b D J K n n ^ ^ R D F n n J K K N # 9 e < w A.2 1 u d < < < < l.f *.:.-.,.u 1 > O l n F D K K n b R ( / ^ W J J D b v ",
"b b F K J n b / / W D F n n ! I % 6 >.;.:.1 t k.n.5 2 5 < < < < ;.M.4 2 k.d *.3.- 1 1 7 k n K L v b R / ( ` ( J J D v c ",
"b n D K J n n / ( W D D n j O : :.d C.g 1 - p <.Z.M.< 1 < < < e 2 1.m.1 A.2 ,.z.,.4.*.w 1 8 M Q v v ~ ( / _ _ F J D c c ",
"K R R ^ W / / b n N %.#.z 8 e <.=.1 s m.- - d &.6 N.2.2 - < < :.d 2 ~.w A.;.l.4.N.w 6 1.4 < > k #.@.L K K ^ ^ b v b J P ",
"R R R ^ W / / b b N $.A : g g 6 6 1 1 N.e < -.d 1 p 4 1 1 1 < 1 *.*.g -.v.1 1 ~.6 1 - *.;.1 5 1 = O.L R K / ^ v v b J P ",
"^ ^ W ^ / ^ W R ! G 7 1 w N.;.6 v.1 1 a Z.r a w - 1 1 1 5 w e 6 1 < 2 w p 1 1 A.1 1 < l.:.6 C.w 2 7 m J J R R K R F h h ",
"^ ^ W ^ ^ / ^ R K o - :.2 2 (.v.5 e g a y < < 3 g z.(.;X:X=X=X;X:X}.n.;.5 1 1 >.y 1 w (.t B.u 4.- 1 ; F F R R K K J c h ",
"R R R R R R R G O 1 f |.p 1 a G.e &.*.1 5 *.C.XXI.f.t.8.5.5.5.5.8.e.s.L.OXD.,.w d *.z.f N.c.a A.- 3 1 ; m J K F F n h h ",
"J J F D n D b O 1 w w u F.t < &.A.t 1 ,.].I.y.8.5.5.5.5.5.5.5.5.5.5.5.5.6.t.K. Xl.4 1 3.;.,.1.r u ;.2 1 7 j v c c h h h ",
"F J F n n n # 1 y :.f 1 s ~.6 y 5 p |.Y.0.5.5.5.5.5.5.5.5.5.5.5.5.5.5.5.5.5.5.8.K.%X;.2 4 z.r < 1 *.c.1 - . v h c h h h ",
"R R ^ ' / l < 2 1.1 < < 2 z.,.2 :.XXa.6.5.5.5.5.5.5.5.5.5.5.5.5.5.5.5.5.5.5.5.5.6.t.+Xl.2 *.w 1 f m.r ,.1 < @ R R J v v ",
"K R ) ( U 7 1 d 1.- < - &.p 4 z.Y.0.5.6.5.5.5.5.5.5.5.5.5.5.5.5.5.5.5.5.5.5.5.5.5.5.8.L.C.r w z.b.2 2 6 r 2 > M R J v v ",
"D D Q Q % 1 < e _.w 1 2 :.w G.I.8.5.5.5.5.5.5.5.5.5.5.5.5.5.5.5.5.5.5.5.5.5.5.5.5.5.5.6.g.].e *.1 1 1 y C.1.< 7 G F F D ",
"F F  .T , 1 5 w k.S.<.>.u z.I.8.5.5.5.5.5.5.5.5.5.5.5.5.5.5.5.5.5.5.5.5.5.5.5.5.5.5.5.5.6.g.A.2 1 2 f F.,.6 2 1 V F J K ",
"F F ~ & 1 *.n.!.A.a p 2 ;.Y.8.5.5.5.5.5.5.5.5.6.5.5.5.5.5.5.5.5.5.5.5.6.6.6.6.5.5.5.5.5.5.6.L.c.< z.N.w < w 3.1 ; D J K ",
"R ^ N < g i < 1 :.N.1 a XXq.5.5.5.e.L.L.L.L.L.L.L.g.5.5.5.5.5.5.5.5.w.L.L.K.L.L.L.L.s.5.5.5.8.E.1.w w < r C.s 2 1 C b b ",
"R W * < ,.6 < < - 3.4 }.s.5.5.5.5.q.R.:X:X:X:X:X:X:Xu.5.5.5.5.5.5.5.q.g.+X:X:X:X=XI.i.5.5.5.5.w.-Xw < 5 C.u < 2 1 o v v ",
"/ W ; < c.-.- 1 1 *.,.W.6.5.5.5.5.5.6.J.:X:X:X:X:X:X&Xw.5.5.5.5.6.6.6.5.6.L.:X;Xr.5.5.5.5.5.5.5.g.m.1 N.l.f *.z.4 : I ^ ",
"/ S : 1 r D.b.-.<.d ].0.5.5.5.5.5.5.5.5.L.:X:X:X:X:X:X#X8.5.5.5.5.5.5.5.6.w.;XOX5.5.5.5.5.5.5.5.6..Xy 2 2 < < 2 2 < # W ",
"^ 0 1 2.w 5 1.3.e *.I.5.5.5.5.5.5.5.5.5.t.:X:X:X:X:X:X:XoX6.5.5.5.5.5.5.6.9.&XoX5.5.5.5.5.5.5.5.6.j.z.w M.3.l.3.N.1 > L ",
"! > f y 3 t <.4 1 C.y.5.5.5.5.5.5.5.5.5.r.:X:X:X:X:X:X:X:XJ.5.5.5.5.5.5.6.8.&XoX5.5.5.5.5.5.5.5.6.q.{.< s w >.m.;.< < N ",
"N < 1.&.N.D.k.2.2 XX8.5.5.5.5.5.5.5.5.5.t.:XT.*X:X:X:X:X:X:Xs.5.5.5.5.6.6.9.&XoX5.5.5.5.5.5.5.5.6.6.W.p 2 w F.;.< < < V ",
"+ 1 w x.=.2 2 =.g I.5.5.5.5.5.5.5.5.5.5.r.:XK.y.;X:X:X:X:X:X;Xr.6.5.5.5.5.8.&XoX5.5.5.5.5.5.5.5.5.5.f.z.4 S.d < < < < % ",
"X 1 < < - &.x.r z.j.5.5.5.5.5.5.5.5.5.5.t.:XJ.6.L.:X:X:X:X:X:X#X9.6.5.5.6.9.&XoX5.5.5.5.5.5.5.5.5.5.t.).1 ;.< < < < < 7 ",
"0 < < < < < 2 1 ^.r.5.5.5.5.5.5.5.5.5.5.r.:XJ.5.6.P.:X:X:X:X:X:XoX8.5.5.6.9.*XoX5.5.5.5.5.5.5.5.5.5.6.:X4 < - < < < - - ",
"9 < < < < < 1 1 ;X8.5.5.5.5.5.5.5.5.5.5.t.:XJ.5.5.6.E.:X:X:X:X:X:XI.5.5.5.8.*XoX5.5.5.5.5.5.5.5.5.5.5.$Xp < < < < < < < ",
": < < < < < < 5 :X5.5.5.5.5.5.5.5.5.5.5.t.:XJ.5.5.5.q.*X:X:X:X:X:X:Xu.6.5.9.&XoX5.5.5.5.5.5.5.5.5.5.5.OXg < < < < < < < ",
"- < < < < < < r =X5.5.5.5.5.5.5.5.5.5.5.r.:XP.5.5.5.5.y.;X:X:X:X:X:X*Xu.5.9.&XoX5.5.5.5.5.5.5.5.5.5.5.oX-.1 < < < < < < ",
"1 < < < < < < e =X5.5.5.5.5.5.5.5.5.5.5.t.:XJ.5.5.5.5.5.y.:X:X:X:X:X:X&Xe.9.&XoX5.5.5.5.5.5.5.5.5.5.5.E.*.< < < < < - - ",
": < < < < < 1 5 ;X5.5.5.5.5.5.5.5.5.5.5.r.:XJ.5.5.5.5.5.5.H.:X:X:X:X:X:X@X0.&X+X5.5.5.5.5.5.5.5.5.5.5.OX=.< < < < < - - ",
"; < < < < < - 1 :X6.5.5.5.5.5.5.5.5.5.5.r.:XJ.5.5.5.5.5.5.8.W.:X:X:X:X:X:XT.*XoX5.5.5.5.5.5.5.5.5.5.5.&Xa < < < < < < < ",
"8 < < < < < < < |.w.5.5.5.5.5.5.5.5.5.5.t.:XJ.5.5.5.5.5.5.5.8.&X:X:X:X:X:X:X:XoX5.5.5.5.5.5.5.5.5.5.5.;X6 < < < < < < - ",
"% < < < < < < < b.s.6.5.5.5.5.5.5.5.5.5.r.:XJ.5.5.5.5.5.5.5.6.9.@X:X:X:X:X:X:XoX5.5.5.5.5.5.5.5.5.5.e.|.< < < < - 1 < ; ",
"@ < < < < < < < *.L.6.6.5.5.5.5.5.5.5.5.t.:XJ.6.5.5.5.5.5.5.5.5.y.;X:X:X:X:X:XoX5.5.5.5.5.5.5.5.5.5.s.m.< < < < - - 1 o ",
"@ - < < < < 1 < 5 OX7.5.5.5.5.5.5.5.5.5.r.:XJ.5.5.5.5.5.5.5.5.5.6.g.:X:X:X:X:X+X5.5.5.5.5.5.5.5.5.5.T.g < < 1 1 1 <.< * ",
"j : < - w &.a 1 - S.t.5.5.5.5.5.5.5.5.5.t.:XP.5.5.5.5.5.5.5.5.5.6.6.I.:X:X:X:XoX5.5.5.5.5.5.5.5.5.q. X1 < < < 2 4 t < l ",
"F 8 1 y (.M.1.-.- <.K.5.5.5.5.5.5.5.5.5.t.:XL.5.5.5.5.5.5.5.5.5.5.5.8.T.:X:X:XoX5.5.5.5.5.5.5.5.5.a.m.< v.A.!.~.`.p : m ",
"R V 1 3.g 2 < u i q .X6.5.5.5.5.5.5.5.5.d.:X+X6.5.5.5.5.5.5.5.5.5.5.6.q.$X:X:X+X5.5.5.5.5.5.5.5.5.Y.s 1 s <.,.a s 1 . D ",
"R L > ,.1 < < w v.- k.L.5.5.5.5.5.7.q.i.$X:X:XK.r.8.5.5.5.5.5.5.5.5.5.5.e.=X:X+X5.5.5.5.5.5.5.5.a.C.1 < < r k.6 2 2 z n ",
"R K & a r < < w 4 6 5 %Xp.5.5.5.5.a.*X;X;X:X;X:X;X@X5.5.5.5.5.5.5.5.5.5.5.s.:X+X5.5.5.5.5.5.6.8.&Xp 1 - < < r N.e 7 W ( ",
"K R B 2 <.g w *.;.C.2 -.+X8.5.5.5.9.e.r.r.w.r.w.w.w.5.5.5.5.5.5.5.5.5.5.5.6.J.L.5.5.5.5.5.5.6.I.n.< 1 1 g f d *.2 V ( } ",
"n n J 8 e b.*.:.x.=.1 1 l.U.5.5.5.5.5.5.5.5.5.5.5.5.5.5.5.5.5.5.5.5.5.5.5.5.5.5.5.5.5.5.5.5.g.Z.5 e - 6 <.f r 6 > ! J J ",
"n n K l : 5 1 g ~.1 - ,.y C.H.5.5.5.5.5.5.5.5.5.5.5.5.5.5.5.5.5.5.5.5.5.5.5.5.5.5.5.5.5.5.u.).a *.g 2 1 y 3.y 1 V ^ J J ",
"n n F L 8 - 6 C.*.- 6 ^.3.r ].H.6.5.5.5.5.5.5.5.5.5.5.5.5.5.5.5.5.5.5.5.5.5.5.5.5.5.5.5.y.XXs ,.5 4 *.*.*.a 6 ; L W K K ",
"D D n n z ; 1 3.1 e D.a - 1 e C.L.7.5.5.5.5.5.5.5.5.5.5.5.5.5.5.5.5.5.5.5.5.5.5.5.5.5.g./.s 2 p F.D.k.N.*.- : V K R / / ",
"D D n n b k 1 6 *.D.a 1 2 -.;.t c.E.r.5.5.5.5.5.5.5.5.5.5.5.5.5.5.5.5.5.5.5.5.5.5.0.I.C.w 3.4 - 1 1 1 g y < A F K K / / ",
"n n n n n F O 1 ,.,.1 1 N.n.6 *.y <.-XH.6.5.5.5.5.5.5.5.5.5.5.5.5.5.5.5.5.5.5.5.a.*Xb.- f A.z.1 1 p C.d < 8 W X.@.] b v ",
"n n b n n K G 8 < &.*.=.Z.1 < < k.e e n..Xg.w.5.5.5.5.5.5.5.5.5.5.5.5.5.5.q.s.Y.Z.u 5 r - 2 N.2.< < < < > I ^ X.@.{ v v ",
"n n b n b W ^ j > 2 u a 2.< < < t 3.M.w y l.{.W.j.t.6.5.5.5.5.5.5.6.e.s.T.[.m.s 1 6 N.:.- 1 2 C.v.t 1 < M n n ~ ~ E R K ",
"n D D D D / _ h h ; - 1 1.2 < < 2 (.6 r -.5 1 p x.^.;X&XOXoXoX+X$X;X|.m.d 1 < g z.c.w ~.w 1 6 s v.1 : m K v v W ^ W ^ ^ ",
"n n b b v ....h h x 7 2 6 ,.;.4 l.4.3.M.t g *.1 1 1 4 i g -.-.=.a 6 1 5 w 1 1.p 1 g F.&.V.q t 1.1 ; l K F c v R W W W R ",
"} +.o.O.{ R R K R K K 0 < 1 6 -.G.p }.6 1 - n.5 y n.2 1 g s 1 6 1 w N.=.n.4.'.1 < - N.f 3.A.&.2 ; z c v c n D c c c F F ",
"X.@.[ o.[ K K E P K / ^ C > 1 u :.f N.1 - 1 A.t 1 v.v.1 r -.1 _.e 1 n.&.a B._.w 1 1 3.a u f > + h c v n v n n c v v D D ",
"R W v h h | | b n v n b D z 7 < 1 w N.2 < y ^.2 4 =.B.i p r p k.k.- 4.v.<.d C.3.1 2 l.2 1 ; A Q D D R / ^ J J / / W J F ",
"~ ^ v c c } | b n b n b D D L S 9 - r *.,.N.i < i s y C.*.1 3.-.~.6 s F.6 < 2 ,.<.&.6 : Z Y [ ` D D ^ / / K R / / ^ J J ",
"R ^ b c v ^ ` H D D D n F F K R K V 8 : - 1 - 2 k.-.- 1.^.5 -.- :.2.w S.p < 1 < 1 8 V L R R ( ^ D F R ^ ^ F F W ^ R K K ",
"R R n n b J F _ ( ^ J K W W J J F b b I * , - 1 e e < 1 3.<.3.- d N.g g w < : o z m n D F F / / J J K J F v b v b n R W ",
"R R n b b J J _ _ ^ J K W Q F J F n n } ..T k + % 8 - 1 < < < - 1 1 7 O V N m D F n b n D F / / J K J K J v b v b b W ^ "
};
