/* XPM */
static char *result[] = {
/* columns rows colors chars-per-pixel */
"60 60 214 2 ",
"   c #030300",
".  c #0C0A00",
"X  c #191600",
"o  c #1A1702",
"O  c #110F00",
"+  c #221D00",
"@  c #292303",
"#  c #332C01",
"$  c #3A3202",
"%  c #39320A",
"&  c #353018",
"*  c #363632",
"=  c #443B00",
"-  c #403700",
";  c #413A10",
":  c #433F24",
">  c #564A01",
",  c #4B420B",
"<  c #685900",
"1  c #605614",
"2  c #746401",
"3  c #7B6A00",
"4  c #786700",
"5  c #4C482F",
"6  c #4A4A46",
"7  c #595856",
"8  c #535147",
"9  c #6B6B6A",
"0  c #7B7B7B",
"q  c #E90111",
"w  c #EA0C1C",
"e  c #EB1423",
"r  c #EC1C2A",
"t  c #EC202F",
"y  c #EC2432",
"u  c #ED2D3B",
"i  c #ED2836",
"p  c #ED313E",
"a  c #8A7700",
"s  c #927E00",
"d  c #806F00",
"f  c #EE3542",
"g  c #EE3946",
"h  c #EF3D4A",
"j  c #EF424E",
"k  c #EF4551",
"l  c #EF4955",
"z  c #F04955",
"x  c #F04E59",
"c  c #F04753",
"v  c #F0525D",
"b  c #F15661",
"n  c #F15A65",
"m  c #F15E69",
"M  c #F2636D",
"N  c #F26771",
"B  c #F36B75",
"V  c #F36F78",
"C  c #F3747D",
"Z  c #009600",
"A  c #009C00",
"S  c #00A400",
"D  c #00AC00",
"F  c #09A906",
"G  c #10AF00",
"H  c #00B300",
"J  c #00BB00",
"K  c #0BB707",
"L  c #0CBB11",
"P  c #2DB02D",
"I  c #00C400",
"U  c #0BC600",
"Y  c #00CB00",
"T  c #09CA05",
"R  c #00D400",
"E  c #0CD300",
"W  c #00DB00",
"Q  c #0CDC00",
"!  c #08DB08",
"~  c #18DA00",
"^  c #1AD01A",
"/  c #28DA00",
"(  c #38DF00",
")  c #00E400",
"_  c #0CE200",
"`  c #00EC00",
"'  c #0CE606",
"]  c #13EB00",
"[  c #16E601",
"{  c #00F300",
"}  c #0BF400",
"|  c #00FC00",
" . c #0AFD01",
".. c #08F90C",
"X. c #13FE00",
"o. c #1BFC00",
"O. c #17F502",
"+. c #18F915",
"@. c #10F319",
"#. c #22EA01",
"$. c #2DE900",
"%. c #37EB00",
"&. c #23FE00",
"*. c #2DFE01",
"=. c #2AF201",
"-. c #34FE00",
";. c #3BFC00",
":. c #3CF200",
">. c #2AFE19",
",. c #36CA36",
"<. c #36D436",
"1. c #2ACC2A",
"2. c #25F927",
"3. c #35E535",
"4. c #39E837",
"5. c #36F736",
"6. c #2DEA2A",
"7. c #44EC00",
"8. c #43FD00",
"9. c #48FD00",
"0. c #4CF708",
"q. c #47F836",
"w. c #4FFB2E",
"e. c #6EFB33",
"r. c #5ABF5A",
"t. c #4AFA49",
"y. c #45EB43",
"u. c #77FA48",
"i. c #62F749",
"p. c #67DA67",
"a. c #5EE95E",
"s. c #958100",
"d. c #9D8700",
"f. c #A38D00",
"g. c #AC9500",
"h. c #B49B00",
"j. c #BCA200",
"k. c #C8AC00",
"l. c #CEB200",
"z. c #D2B500",
"x. c #D9BB00",
"c. c #DEC000",
"v. c #E4C400",
"b. c #EBCB00",
"n. c #F0CF00",
"m. c #F4D200",
"M. c #F9D700",
"N. c #FFDC00",
"B. c #80DF7F",
"V. c #F47A83",
"C. c #F47A83",
"Z. c #878786",
"A. c #9A9898",
"S. c #B1ABAC",
"D. c #F5848C",
"F. c #F5888F",
"G. c #F58B92",
"H. c #F5949A",
"J. c #F7989F",
"K. c #EB999F",
"L. c #F79CA3",
"P. c #E69EA3",
"I. c #CDAEB0",
"U. c #F5A5AA",
"Y. c #E9B4AC",
"T. c #EAB8AC",
"R. c #F8ADB3",
"E. c #F5ADB2",
"W. c #E8BAB7",
"Q. c #F9B5BA",
"!. c #F9BABE",
"~. c #F7B2B6",
"^. c #EAACB0",
"/. c #81DD81",
"(. c #A3DC9F",
"). c #87ED87",
"_. c #96EC93",
"`. c #A8E8A4",
"'. c #BBE9AB",
"]. c #B3F4AD",
"[. c #AFDBA6",
"{. c #C7DCB3",
"}. c #D9D1B9",
"|. c #D3D4B5",
" X c #C5E7B4",
".X c #C1F1AF",
"XX c #ECC0B6",
"oX c #FABDC2",
"OX c #F1BEC2",
"+X c #E4BEC1",
"@X c #D4D4D4",
"#X c #D3CFCA",
"$X c #E4C6C5",
"%X c #FAC5C9",
"&X c #F9C6C9",
"*X c #E6D8C5",
"=X c #FBCDD0",
"-X c #FBD2D5",
";X c #FCD6D9",
":X c #FCDBDD",
">X c #CDEDC3",
",X c #D8E5C7",
"<X c #CFF5C7",
"1X c #EAE8D9",
"2X c #EDE9DC",
"3X c #FCDEE1",
"4X c gray91",
"5X c #FDE2E4",
"6X c #FDE7E9",
"7X c #FDEAEB",
"8X c #FEEFF0",
"9X c #FEF4F5",
"0X c #FFFEFE",
"qX c #F7F5F5",
/* pixels */
"H H ` | | I Y R R Y { | Y I D D S R W *.&.} R W Y Y Y Y Y ` ) | | ` { | ) ) W W W ` ` |  .{ ) ) Y Y { X.| Y R Y R Y R Y ",
"D H ` | | Y I W R R { { Y Y H D D W ) &.o.} R R Y I Y Y Y ` ) | | ` | | ) W W W W ` ` | | } W W Y R { o.| R Y R R R Y Y ",
"D H I R W J J ` { ) Y Y H J R ! W ) W Y R I D H W R I I I Y Y W W R Y R J J H H D Y Y J Y I W W J H ) | | ` ` R R I H D ",
"H H Y W W J H | | ` J Y J J ` ..{ ) ) Y Y I H D ` $.U I Y I Y R W Y I I J H D D D Y Y J I I W Q D H ` | | o. .R R I D D ",
"H H I W R J J | ..` I I J D ) | { ) ) I Y I D S _ [ Y J I I I R R I I I J H D H H Y Y J J J W _ S D [ | | X.o.R R I S S ",
"W ) ` { ` | | H H L w.0.I I W W ) ..` ) ) R ) ` } } W ) ) S S I I I R W I I ` | { { { | | ` J I 0.9.E W W { { D D H R E ",
") ) ` ` ` | | H J ,.u.u.,.,.3.3.3.5.5.4.4.3.3.4.5.5.4.4.4.P P ,.,.<.4.4.<.<.4.q.w.q.q.5.5.5.,.<.e.e.4.6.W | { D D H R ~ ",
"{ { ` { | { ` ) ! >XY.Y.Y.Y.Y.Y.Y.Y.Y.T.Y.Y.Y.Y.Y.Y.Y.Y.^.Y.Y.Y.Y.Y.Y.Y.Y.Y.T.T.Y.Y.^.Y.T.Y.Y.W.T.T.W.'.Y ` ` W ) Y A A ",
"{ { ` { | { | ) ! }.y D.D.D.D.D.D.D.D.D.D.D.D.D.D.D.D.D.D.D.D.D.D.D.D.D.D.D.D.D.D.D.D.D.D.D.D.D.F.D.y {.R ` ) W W R S S ",
") ) ) ) ) ) ) R ! }.g 0X0X0X0X0X6X%X%X7X0X0X&XQ.0X0X0X0X0X0X0X0X0X0X0X0X0X9X;X3X0X0X0X-X%X0X0X0X0X0Xi {.Y R R Y Y J Z Z ",
"R R Y I J I J I T }.g 0X0X0X8Xb q q e q 3X&Xw q m 9X0X0X0X0X0X0X0X0X0X9XB w q q w 6X-Xe q C 0X0X0X0Xi '.Y D D A S Z A Z ",
"Y R I J J J J I T }.g 0X0X0Xb q q =X0X5XL.u q q q V &Xx 6X0XG.b U.-X0XN q q R.9X&XR.j q q q D.=XV 7Xu {.R D D A S A S S ",
") ) { ..| I I I T }.h 0X0X7Xq q q 7X-Xg e h f w q q w G.0X;Xr q q N 9Xq q q 9X:Xz p B N r q q w C.9Xu  X` J H ) ) R D D ",
"W ) }  ...J I R T }.h 0X0X-Xq q q x p n 7X0X0X~.w q h 9X6Xe e g q R.-Xq q q n j H.0X0X0X:Xr q p 9X0Xp  X` J J ) ) R D D ",
"I I } } ..W W D K }.k 0X0XL.q q q q r oX0X0X0X0Xv q !.0X0Xr q G.~.0XL.q q q q r U.0X0X0X0XM q ~.0X0Xp '.{ H J R Y Y Y I ",
"Y Y =.-.*.` ' D F }.k 0XL.t q q q q q q U.0X0X9Xt q R.0X0Xl q r 0X!.e q q q q q q C 0X0X9Xp q !.0X0Xu '.| J H R R Y W R ",
"Y Y O.&.*.) ) S D |.c 9XoXV w q q q q q w &X0X;Xq q i 3X7Xk q q k f V w q q q q q q j v u q q p 7X0Xu '.{ H D Y Y Y R R ",
") ` ) { ` Y I W W {.z 0X%X&XC.q q q q q q M 0XQ.q q q e y y q q %XH.l C.e q q q q q y u q q q q C.0Xi [.D J J { { ` H H ",
") ` ` ` ` I J W W '.z 0XQ.M k V.R.&XC q q k 0X%Xq q q i 9XM q q 7X9XQ.i u C H.b q q k 0XC q q q p 0Xy (.D I I { { ` H H ",
"| | D S D R Y I Y (.z 0X0X0X9X5X0X0XR.w q N 0X9Xi q q f 0XM q q 5X;X!.:X9X0X0X%Xw q M 0X0XM q q f 5Xf _.H | | J I Y { { ",
"| | H D S R R I Y (.v 9X0X0XC y v z e q e &X0X0XC q q V 0XM q q 6X0X0XD.f N N r q w !.0X0X!.q q C.;Xv /.H  .| Y Y Y { { ",
"| | H D H I Y E U /.B ;X0X0X%Xm r q u C ;X0X0X0X&Xq r 5X0XM q q 6X0X0X%Xm r q y b =X0X0X0X-Xq t 5X!.C.p.I { { I Y Y { ` ",
"| | W W Y ) ! =.$.a.F.!.0X&Xe q q q r M oX9X0X7XN q i 9X0XM q q 6X0X-Xi q q q p C &X0X0X0XD.q p 9XU.U.t.&.R R ) ) ) ` ) ",
"| | W R Y ) W #.$.q.R.F.9Xj B m t q q q q q r q q q w 5X0XM q q 6X9Xk v l w q q q q w y r q q w 5XC &X2.*.W R $.%.` { ` ",
"D D E ) W W ) |  .2.*Xz 7Xz 7X0X9XV w q q q q q j v v 0X0XM q q 5X7Xk 9X0X7Xv q q q q q q i h j 9Xx 1X..{ Y Y Z Z D | { ",
"D D R W Q ) ) | | ..'.u 7XD.e z 9X0X%Xl q q w !.0X0X0X0X0XM p F.0X0XC y b 9X0XQ.g q q q U.0X0X9X5Xj <X .{ W R S S H { { ",
") ) ` { ` Y Y Y Y Y ).c -X9XC.C 0X0X0X0XE.h M 0X0X0X0X0X0XM V.0X0X0XqXn m 0X0X0X9XG.y x 0X0X0X0XQ.M a.| { I I Z Z S R R ",
"| { | | ..R R J I Y q.U.H.0X0X0X0X0X0X0X9X5X7XoX9X0X0X0X0XF.Q.0X0X0X0X0X7XoX0X&X5X0X0X0X0X0X0X0XV.U.5.| | I I A A S W R ",
"` ` { | +.Y Y I I Y ` 4XM 0X0X0X0X0X0X0XM H.D.C.-X0X0X0X0X0X#XqX0X0X0X0XF.G.R.L.V.0X0X0X0X0X0X0Xb ,X` | O.I J A A D R R ",
"R R Y Y I R W J I I R `.M -X0X0X0X0X0X0X:XL.F.C.%X0X0X0X@X6 % 8 #X0X0X0X~.N U.oXC 0X0X0X0X0X0X;XC _./ %.( I Y S S H | | ",
"R Y Y I I Y Y I I Y R <.L.D.0X0X0X0X0X0X7XQ.E.N 6X0X4X9 @ j.M.g.o 9 4X0XoXM 5XV L.0X0X0X0X0X0XV W.4.R ~ [ Y I A S H { { ",
"R W W { ` ` { J J J I Y {.x 0X0X0X0X0X0X0X0X0X4XS.7 % d.m.n.m.N.b.s # 8 S.qX0X0X0X0X0X0X0X0X9Xg ].| W Y R ] { R W W W W ",
"W W ` { { ` ` J I I Y I p.H.~.0X0XqX4X4XS.9 * @ 4 d.> b.j.# m.N.4 d N.l.< @ 6 Z.@X4XqX0X0X0XL.E.t.| ' W R ] ` W W W R R ",
"R W Q ` ` ) W I J I I H ^ ,Xj S.* & , , 4 f.z.m.v.@ h.M.> 3 N.k.  z.N.3 2 b.k.d.2 1 5 5 * I.b <X..{ W W R ) ) R W R R R ",
"E W #.o.X.I R | | ) D D H p.F.K.6 j.N.N.N.N.N.N.z.  j.M.> $ M.j.  l.N.o h.N.N.N.N.N.N.f.6 D.H.u.| | I J J ) W I I I R R ",
"R W } X.X.Y I | | ) D D D K 1Xn I.# m.N.N.a 3 j.a o O @ .   X X O X @   @ < s.c.N.N.v.% $Xm <X| { | I I J W W J I Y W W ",
"D D A S Z ) ) &.| ` J H ;.:.i.U.B 9 a N.s     # d g.j.a m.l.f.N.l.k.N.m.v.z.j.g.n.N.< 0 n XXt.| I I ) | { 8.8.I I Y Y R ",
"S D Z A Z ` / o.| ` H H -.-.&.].M +X* z.v.f.g.b.N.N.> s.N.@ h.m.+ x.n.3 M.N.N.N.N.k.5 ^.N _.| | I J ) | ` 8.;.J I I Y R ",
"W W H D D Y U R W R R Y R U D P *Xh S.; m.N.N.M.m.N.$ 2 c.X 4 g.  g.s., m.N.N.N.b.& I.x <X^ W W Y Y R R R G G H H J I I ",
"` ` J J H J I Y Y R W W I I S A r.U.C Z.4 N.N.< $ > o o # $ $ , , $ $ @ > 4 v.M.< A.B Q.y.R R Y R R R E W S S H H J J I ",
") ) J H D I Y Y Y Y W W I J S A A _.C.F.7 s.b.= > h.m.N.b.d.n.s.M.c.z.N.N.N.b.3 9 C.H.).R R Y R W R W R W Z Z J J H J I ",
") ) O.+.@.H D } ` ) ` ) R Y ` | | '  Xm OX6 g.N.N.N.N.N.2 g.s.> M., z.N.N.N.f.7 E.m `.! R I D S D H ) ` ` D D ` ` ` | } ",
") W O.*.2.H H ` ` ) ` ) Y R ` | | ) 6.>Xz ^.6 j.N.m.k.v.> < 2 o s.o s.c.N.g.8 P.n >X^ R R I S S D D ) { { D D ` ` ` | &.",
"J J R _ Q >.+.Y ~ R ` ` Y I W W W J H 1.2Xc +X& k.<   o , 2 d.j.j.g.s.3 s.* &Xz 1X@.| ) ) R J H S D ) | | S S { | { R R ",
"I J R ! ~ 9.9.U / R ` ` I Y R R R J J I <.$Xk $X5 2 g.m.N.N.N.N.N.N.N.f.8 W.k ,X5.) ` ) ` W I J D S ) | | Z A | | { R R ",
"J J R W Y 8.7.Y I R ` ) Y Y Y R Y D H I T <.1Xf +X6 f.N.N.N.N.N.N.M.s.7 ^.g 4X6.) _ _ W ) R H H D D W ` ) K K ` { ` W W ",
"I I H J H R R Y R R ) ` ) ` J D D S D ` ` } y.*Xv ^.7 a m.N.N.N.m.2 9 ^.b *X<.Y I 8.9.W ) Y H H R W Y R I ;.8.W W ) | | ",
"I I J J H R R W R R ) ` ` ` J J H D D ) ` ) ) 6.*Xv U.Z.= m.N.b.$ A.H.v ,X1.Y Y I 8.8.W ` R H J W R Y R R X.8.Y W W | | ",
"J J J J H Y Y } %.` ) )  .| | | | { { D D D H D 3.>Xb D.S.% s & S.V.m <XP A D H H { { R W I A A I Y ` ..| | { ;.9.$.H H ",
"J J J J J W R ) %.` ) ) | | | | | | | S D S S H W ' .XG.x $XZ.$Xh U.].] A Z D J J { { R R I S A I I { { | | { ;.0.$.H D ",
"J J J J J { } D F S J H I I ` | { { { Y R Y ] _ { { +._.^.j H.x ~.).' W J J W ) ) ) ) J J J I I ` ` R R R J J [ [ _ ) W ",
"J I J I I | X.Z S A H H J Y ` | | { { R W Q ;.*.| | | | t.*XC.*Xu.| ) ) Y I ` | { ` ) J J J W W { | ) R W H S { { ` ` { ",
"J J H G D -.-.Z A A H D J J ) { { | | W W )  .&.{ { { { { <._.e.8.} W ) I I ) ` ` W ` J J I R Y { | R W Y S D ` ` ` ` ` ",
"&.8.7.7.%.) Q ) Q ) | | ` ` H S Z W W I Y I R R  .*.E R R D D 9.8.=.Y Y W W I I I ) ` D S S H D S D S D S J J S S D I Y ",
";.9.:.7.%.W W _ ~ W | | ) ] G A Z W W I I I W R  .8.E Y Y S H *.-.=.R Y R W I J I ` { D D S H J S S D H D J I S D D I I ",
") ` D S Z *.*.H H D J H I I ) ` ` I I | | ` J H R R S A Z H H H H J H H D D R W W { { { { ) =.} I I ` | { R Y | | ` R Y ",
"] ` D S S &.*.H J H J H I I Q ` ` J I  .| ` J J W W S Z Z J H J J H I J H S R ) W { { { O.[ :.O.I I { | | ) W | | { W R ",
"` ` H D D { O.U Y I J J R Y W ` ` J I | | ) D H W ) D S A J J J I H J I H H R W R ) ) ` ) ) } { Y I ` { { Y R ` ` ) W W ",
") ) J H H R Y X. .{ W R ` ` R R Y H H | X.$.D S &.| E Y I | | { ` ) ` ) { ` R Y Y J J I Y Y | | R R R R Y D D D H J ) ` ",
") ` J H H R R X. .} W W { _ Y R Y J J &.-.$.D D  .| E I I | | { ` ) ) ) ` ` R Y Y H H J I Y | | W W R W Y H H D H H ` { "
};
