/* XPM */
static char *result[] = {
/* columns rows colors chars-per-pixel */
"60 60 221 2 ",
"   c #3B3B3B",
".  c #373737",
"X  c #2C2C2B",
"o  c #707C30",
"O  c #494949",
"+  c #545354",
"@  c #5C5C5C",
"#  c #5B5A55",
"$  c #535B4E",
"%  c #605F5D",
"&  c #5A635A",
"*  c #557855",
"=  c #517249",
"-  c #6C705F",
";  c #615F60",
":  c #646364",
">  c #6C6C6C",
",  c #696868",
"<  c #706F6D",
"1  c #72726C",
"2  c #747373",
"3  c #7B7A7B",
"4  c #787A75",
"5  c #96243F",
"6  c #975239",
"7  c #806222",
"8  c #914C51",
"9  c #916657",
"0  c #8F6E7E",
"q  c #8B7A78",
"w  c #B97671",
"e  c #008D00",
"r  c #009500",
"t  c #009C00",
"y  c #129C12",
"u  c #00A400",
"i  c #00AC00",
"p  c #0AA908",
"a  c #10AF00",
"s  c #00B400",
"d  c #00BC00",
"f  c #0BB508",
"g  c #17BE00",
"h  c #1CA716",
"j  c #0BBA15",
"k  c #22A91B",
"l  c #3F893E",
"z  c #379937",
"x  c #24B624",
"c  c #36A536",
"v  c #34B834",
"b  c #2BB226",
"n  c #6DA11F",
"m  c #469A36",
"M  c #4CBC3B",
"N  c #4AB73A",
"B  c #4AA33A",
"V  c #00C400",
"C  c #0BC600",
"Z  c #00CB00",
"A  c #0AC905",
"S  c #19C500",
"D  c #00D400",
"F  c #0CD300",
"G  c #00DB00",
"H  c #0CDB00",
"J  c #0AD10A",
"K  c #13DA00",
"L  c #1CDE00",
"P  c #18D500",
"I  c #14DD13",
"U  c #1DC11D",
"Y  c #28DA00",
"T  c #38DF00",
"R  c #00E400",
"E  c #0BE300",
"W  c #00EC00",
"Q  c #0CEA00",
"!  c #0AE70A",
"~  c #15E400",
"^  c #13EB00",
"/  c #1CEB00",
"(  c #00F300",
")  c #0BF300",
"_  c #00FC00",
"`  c #0AFD00",
"'  c #03FA0B",
"]  c #14F501",
"[  c #1BF301",
"{  c #13FE00",
"}  c #1CFC00",
"|  c #11FE0A",
" . c #09FD15",
".. c #18FC14",
"X. c #1CE51C",
"o. c #2CE500",
"O. c #22EB01",
"+. c #2EEB00",
"@. c #34EB00",
"#. c #3BEC00",
"$. c #35E700",
"%. c #23F400",
"&. c #2DF200",
"*. c #24FE00",
"=. c #2DFE01",
"-. c #33FE00",
";. c #3CFD00",
":. c #38F100",
">. c #2AFE19",
",. c #28C728",
"<. c #3ACB3A",
"1. c #3AD73A",
"2. c #2BD42B",
"3. c #2AE32A",
"4. c #31F533",
"5. c #44EC00",
"6. c #43FD00",
"7. c #4AFD00",
"8. c #49F000",
"9. c #52FC00",
"0. c #5AFD00",
"q. c #41FB14",
"w. c #57EF10",
"e. c #48C539",
"r. c #6DC93A",
"t. c #4FFB2E",
"y. c #5A9C5A",
"u. c #4C934C",
"i. c #75875E",
"p. c #58B559",
"a. c #4FAB4F",
"s. c #5F9461",
"d. c #7E8767",
"f. c #639763",
"g. c #749576",
"h. c #77B578",
"j. c #61AC61",
"k. c #54D454",
"l. c #4ECC4B",
"z. c #62C14E",
"x. c #4AE04B",
"c. c #68C768",
"v. c #76C476",
"b. c #6BCC62",
"n. c #858768",
"m. c #87966E",
"M. c #969B79",
"N. c #8B9170",
"B. c #97A17C",
"V. c #B18E59",
"C. c #80DD7C",
"Z. c #7F6D9F",
"A. c #817F83",
"S. c #75A789",
"D. c #848484",
"F. c #8A858B",
"G. c #8D8B8D",
"H. c #888889",
"J. c #918C8E",
"K. c #889A88",
"L. c #93948D",
"P. c #929B82",
"I. c #8F8C91",
"U. c #928E93",
"Y. c #9A8191",
"T. c #959394",
"R. c #989395",
"E. c #9A969B",
"W. c #9C9B9C",
"Q. c #999894",
"!. c #A09B9D",
"~. c #8BAC8B",
"^. c #9CA686",
"/. c #9FA09E",
"(. c #97BB98",
"). c #A3A49C",
"_. c #B2B592",
"`. c #9E92A1",
"'. c #A29FA2",
"]. c #A5A3A3",
"[. c #A7A5A8",
"{. c #ACABAC",
"}. c #A9A8A6",
"|. c #B0AEAF",
" X c #B3B2AA",
".X c #AFAEB0",
"XX c #B1AFB0",
"oX c #B4B2B3",
"OX c #B9B5B3",
"+X c #B9B7B8",
"@X c #BBBABA",
"#X c #B9B9B7",
"$X c #ABB4AB",
"%X c #CC8792",
"&X c #C2BDBC",
"*X c #C6B0A8",
"=X c #E3A5A7",
"-X c #9AC59A",
";X c #8ECD8D",
":X c #A8C8A8",
">X c #BDCABD",
",X c #C4C1BF",
"<X c #BFBFC0",
"1X c #C4C3C3",
"2X c #C8C6C4",
"3X c #CCCAC5",
"4X c #CDCCCC",
"5X c #C5C8C5",
"6X c #D0CECF",
"7X c #D0CEC6",
"8X c #C9D2C9",
"9X c #D9D6CB",
"0X c #D4D4D4",
"qX c #DCDADB",
"wX c #DCDBD6",
"eX c #E1DED7",
"rX c #EAE5D5",
"tX c #E5E3D9",
"yX c #ECE9D9",
"uX c #E7E4D7",
"iX c #F1ECD9",
/* pixels */
"s s W _ _ V Z D D Z ( _ V V i i u G G =.*.( D G Z Z Z Z Z R W _ _ W ( _ R G G G D W W ( { ( G R Z Z ( { _ Z D Z D D Z Z ",
"i s W _ _ Z V G D D ( ( Z Z s i i G R *.} ) D D Z V Z Z Z W R _ _ W _ _ R R G G G ( W _ _ ( R G Z Z ( } _ D Z D D Z Z D ",
"i s V D G d d W ( R Z V d d D G G R G Z D V i s G G V V V Z Z G G D D Z d d s s s Z Z d V Z G G d s R ( _ W W D D V i i ",
"s s Z G G d s _ _ W V Z d d R ' ( R R Z Z V s i W o.C V Z V Z D G Z V V d s i i i Z Z d V V H K s s W _ _ } ` D D Z i i ",
"s s V G D d d _ _ W Z V d i R _ ( W R V Z V i u E O.Z d V V V D D V V V d s i i i Z V d d d G E i s / _ _ { } D D V u u ",
"G R W ( W _ _ s s j t.q.V Z G G R ' ( R R D R R ( W R R R u u V V V G G V V W ( ( _ ( ( _ W d V q.8.F G G ( W s i s D F ",
"R R W W W _ _ s s j w.w.V d G G G ) ) G G G G W ( _ R R R r t d V V H R V Z W } } [ ] _ _ W d Z ;.0.H R G _ ( i i s G P ",
"( ( W ( _ ( W R R G d s V V Z V V V V _ _ W D G i i Z R G i i e e i ( W { *.H D Z i i s V J _ _ ( Q D D Z W W G R Z t t ",
"W ( W ( _ ( ( R G G d d V Z V D Z V Z _ _ ( G G s s G G G i i t e i _ ( =.7.P G G s i d d V _ } ( _ D G D W R G G Z u u ",
"R W R R R R W D D A g S Z Z Z Z D V Z ( ( W Z Z d s Z G G i s i u s G R _ *.Z Z V i i V Z Z ( _ R W Z D D D D Z Z d t t ",
"D D Z V d V d V A S 0.9.[ ( ( _ _ c.h.j.z.z.z B <.<.b.4X-Xv v <.1.v c c l.k.h.-X~.p i _ _ _ -._ Z D Z Z Z i i t t t t t ",
"Z D V d d d d V Z S ;.6.^ ( _ ( ( k.oXG.].1XOX3XeXuXeX5XXXXX#X4X0XqX4X`.H.{.0X4Xp.s d _ _ ( _  .Z D Z D Z i i t u t t t ",
"R R (  ._ V V Z Z V u u d V s s s k oXU.!.&X&X7XrXiXeX1XXXXX#X6XqXqX4XI.T.#X0X5X3.( ( d s s V d _ _ W _ W d s R R G i i ",
"G R ) ` ' d V Z Z V i u d V s s i p (.W.R.OX3X3XrXiXeX4X#XW.oX5XqXqX4XI.W.<XqX:X! ( ( s s d d d _ _ W _ W d d R R D i i ",
"V V Q ` ) G G i s s V D W W d s s s p.[.J.}.,X3XrXiX9X>XT.2 #X4XqXqX<XF.].5XqXc.Z s s G R Z Z V Z D R ( ( d d D Z Z Z V ",
"Z Z &.-.=.W Q i i s G G _ _ V s s V U $XJ.].,X2XrXiX9X1X6X1X6X4XqXqX+XF..X6X6X,.Z u t W _ R Z Z Z Z ( _ _ s s D D Z D G ",
"V Z [ *.=.R R u i s G G _ ( d s i s d -XU.W.&X,XuXiXyX3X#XoX@X6XqXqX{.U.+X0X>XJ D u t W ( G Z Z V V W ` ( s i Z Z Z D D ",
"W W W ( ( Z V G G D D Z d d i i i ( ' k.R.U.OX&XwXiXyX2XoX.X@X4XqXqX`.T.<XqXv._ _ V d W W R _ ( Z Z s s i d d ( ( W s s ",
"R W W W W V V D G G Z Z d d s i i ( ( 3.}.J.}.OXwXiXrX2XXX.X+X6XqXqXF.'.<XqX4.' _ d d W R R ( W Z Z s i i V V ( ( W s s ",
"_ _ i u u D Z V Z d s i O.:.G G D ( W ! }.U.'.OX2XiXrX3XoXXX@X6XqX4XA.[.4X8XJ J Z W W _ _ W i i V V d d s _ _ d V Z ( ( ",
"_ _ s u i Z D V Z d i u 5.8.H G G ( ( R v.U.W.oXXXyXuX3XXXXX@X6X0X[.G.{.0X;XD D D W W _ _ W i i V V d d s _ _ Z Z Z ( ( ",
"_ _ s s s V Z F C V s d R ~ R R G R W R 2.E.Y.|.'.yXuX3XoXXX+X6XqXD.U.<X0Xx.G G D Q R ( ( G s s s i V V V ( ( V Z Z ( W ",
"_ _ G G Z R G @.@.R G G d s W _ _ d V _ _ ~.J.}.T.eXyX3XXXXX@X6X6X2 /.<X8XD ( _ _ =.} W W D V V i u R _ =.D D R R W W R ",
"_ _ G D Z R G / @.R R R s V W _ _ d d _ _ b.F.'.J.2XyX7XXXXX+X6X<X> [.5X;XG ( _ ( 7.;.G R R Z d i i W _ =.D G o.$.W ( W ",
"i i F R G G R _ ` ) W W _ _ R ( W V d t t c I.R.R.}.rX3XoX|.#X6X`.2 {.1Xx.R _ _ ( $.@.d s g _ { V V R ( ( Z Z t r i _ ( ",
"i i D G H R R _ _ ( R W _ _ W Q R V V t r y K.I.L.J.eX3XOX|.@X2X2 S.XX1XX.W _ _ ] o.+.i s S { } V V R ` ) D D u u i ( ( ",
"R R W ( R Z Z Z Z Z G G s i V V Z Z V d d V j.H.R.1 ,X7XoXXX@XOX; I.$X;XG R ) %.%.d d V D V F V D D W _ ( V V r r u D Z ",
"_ ( _ _ ' G D d Z Z W R u t d Z Z D D Z Z Z ,.D.R.%  X9XXX|.+XW.O T.#X1.R R @.;.| s s R G D Z Z G G ( _ _ V V t t i G G ",
"W ( ( _ ..Z V V V Z W G t t d V d Z Z Z V Z A g.J.@ L.3XoXXX@X3 O T.:XI G K [ } ..i d G G Z V V D G W _ [ V V t t u D D ",
"D Z Z Z V D G V V V D V d d D G D ` _ D D D Z j.D.% 2 2XoXXX|.: + T.(.D t t D W W ( _ _ _ W H D G D Y T Y V V u u s _ _ ",
"Z D Z V V D Z V V Z Z V s V Z D D _ _ G D Z V s.D.> 1 #XoXXX].% ; E.f.D u r G ( R _ _ ( _ ( H G D G D L ~ Z A t u s ( ( ",
"D G G ( W W W d d d Z Z V V u t t d d *.;.[ G z A.> 1 ].oXXXG.; 2 !.z _ i u d V d s s d V V ( R _ _ R Z Z ] W D R G G G ",
"G R W ( ( W W d V V V V Z V u u t V V *.6.%.G x , 2 > T.XX{.4 ; 3 2 ,.( i i V Z V i i V d Z ( W _ _ R G D ^ W G G G D D ",
"D D H R W R R d d V V d V d u i u d V Q / L G A % 2 > 3 [.'., , D.; I ) i i d V d V V V Z Z Q W _ ( G G D R R D G D D D ",
"F G %.} { V D _ _ R i i s s d Z V D F s s d R R * , , 1 Y.I., > Z.* G G V V D R G _ _ ( ( %.7.;._ _ V d d R G V V V D D ",
"D G ( { { Z V _ _ R i i s d d Z Z D D d s i D D u.: 2 4 S.3 4 > % a.G G V V G R G _ _ ` _ ] 6._ ( _ V V d G G d V Z G G ",
"i i t t t R R } _ ( d s ;.;.%._ { R E Z D V u u h.$XA.Y.'.> 2 T.4 v.D D G G Z V V _ _ ( _ _ _ _ V V R _ ( 6.6.V V Z Z D ",
"u i t t t R Y } _ W s s -.-.%._ { R R D G V t t a.).S.L.+XD.D.@X).k.D D D G Z V V _ _ _ _ _ _ ( V d R _ W 6.;.V V V Z Z ",
"G G s s i Z C F G D D Z Z C i i i V V D G V s s y.W.& @X1X@ G.Q.).f.R G R G W W W G G D R G G G Z Z D D D a a s s d V V ",
"W W d s s d V Z D Z G G V V u t t V V G G Z V j d.W.2 H.oX> + . D.& ! W R G ) _ _ G G G G D D Z D D D F G u t s s d V V ",
"W R d s i V Z V V Z R G V d u t t d d D G D d x $ J.D.; D.L.  # [.O ,.R R R ( _ _ R G D D D D Z D G G G D t t d d s d V ",
"G R [ |  .s i ( W R R R Z D W _ _ R R G G Z i y.O D.!.1 S.D.W.].2 @ y.s W W Z V V Z G D D V u i s s G W W i i W R W _ ) ",
"R G [ *.4.s s W W R W R D Z W _ _ R R D G Z p $ , O # R.<   H.+ . 3 $ f ( ( Z d V G D D D V u u u i R ( ( s i W W W ` } ",
"d d G H H >...Z P G ( W V V G G G d d V V Z <.O 4 # > q + ; 3 : @ O + l.( _ ( ( ( ( ( R R D d s i i R _ _ t t ( _ ( D D ",
"d d G H ~ 7.7.A Y D W W Z Z D G D d d V Z V m   F.n.E.+ . & 2 D.D.X + l _ _ ( ( ( R W R ( G V d i u R _ _ t t _ _ ( D D ",
"d d D D D 5.5.A V D W R Z V Z Z Z s s V Z v 9 q ^.M._.M.n.B.M.^.B.d.1 i.e.W R W R E W G R Z s s i u G W W f f W ( W G G ",
"V V d d d D D Z D D R W R W d s i u i W W o 9 A.A._.>X).L.Q.L.T.!.s.= 6 6 V Z Z V 7.7.G W Z s s D R Z D V ;.6.G G R _ _ ",
"V V d d s D Z G D D W R W W d d i i i W U 0 8 5 %X=X*XV.w S.%X`.A.A.o 9 K.n Z V V 6.7.G R D s d D G Z D Z { 6.Z G G _ _ ",
"d d d d d Z Z ) #.W R R _ _ _ _ _ ( ( h g.N.n.M._._._.B.B.B.P.^.U./.N.n.N.N.k s s ( ( D D V t t V Z W ' _ _ ( 6.7.O.s s ",
"d d d d d D D R $.W R R _ ` _ _ _ _ ( h m m m m M M r.r.r.e.M M N N e.M m m k d d ( ( G D V u t V V W ( _ _ ( ;.9.$.i i ",
"d d d d s ( ' i p u s d Z V W _ ( ( ( Z D Z / ~ ( ( ( Q W H D ) ( Q G G d d G R G R R d d d Z V W W D D D d d ~ ~ Q R G ",
"d d d V V _ { t u t s s d Z W _ _ ( ( D G F ;.*._ _ _ _ ( R G ;.;.( R R Z Z W ( ( W W d d d D G ( _ R G G s u ( ( W W ( ",
"d d s i i -.-.t t t i i d d R ( ( _ _ G R R ` *.( ( W ( ( Z D 6.;.) G G V V R W W R R d V d D Z _ ( D G Z u i W W W W W ",
"*.7.5.8.:.G R H E G _ _ W W s u t G G V V V D D ` *.H D Z i i 7.7.&.Z Z G G V d d R W i u u s s u i u i u d d u u i V Z ",
";.7.#.8.#.G G E K G _ ( R ^ a t r G G V V V G G ` 7.F Z Z i s =.-.&.Z D D G V d V W W p u u s d u u i s i d V u i i V V ",
"R W s t r =.=.s d i d d V V R W W V V _ _ W s s D D u r t s i s s d d s i u D R R ( ( ( ( W &.) V V W _ ( D Z _ _ W D Z ",
"Q W i u u *.=.s d s d s V V H W W V V _ _ W d d D G i r t s s d d s d d i i D R G ( ( ( ] / #.] V V ( _ _ G R _ _ ( D G ",
"W W s i i ( ] C Z V d d D Z G W R d d _ _ R i s G R s t t d d V V d d V s s Z G G R R R R R ) ( Z V W ( ( Z D W W R G G ",
"R W d s s D Z { ` ( G D W W D D Z s d _ { +.i u *._ F V V _ _ ( W R W R W ( D Z Z d d V Z Z _ _ D D D D Z i s i s d R W ",
"R R d s s G Z { ` ) G G W Q Z D A d d *.-.o.s i _ _ F Z V _ _ ( W R R R W ( D Z Z d s d V Z _ _ G G D G Z s s u s s W ( "
};
