/* XPM */
static char *result[] = {
/* columns rows colors chars-per-pixel */
"60 60 176 2 ",
"   c #5B2F14",
".  c #5D3215",
"X  c #643517",
"o  c #6A3917",
"O  c #653618",
"+  c #643A1A",
"@  c #6C3A19",
"#  c #703B16",
"$  c #733D1A",
"%  c #673E23",
"&  c #0C680C",
"*  c #0F7A10",
"=  c #147E14",
"-  c #127612",
";  c #387621",
":  c #367F21",
">  c #3F7923",
",  c #4D4E19",
"<  c #5D431B",
"1  c #544D1B",
"2  c #5C4C1E",
"3  c #4C5C1E",
"4  c #465B1D",
"5  c #53571D",
"6  c #60421B",
"7  c #76401B",
"8  c #7D441E",
"9  c #744A1E",
"0  c #794A1F",
"q  c #7C4712",
"w  c #575620",
"e  c #565820",
"r  c #5E5E20",
"t  c #64442F",
"y  c #625F21",
"u  c #6B5B22",
"i  c #765220",
"p  c #715925",
"a  c #674835",
"s  c #4F6421",
"d  c #4A6D23",
"f  c #5C6A22",
"g  c #467C28",
"h  c #447724",
"j  c #537A28",
"k  c #5A7127",
"l  c #606A27",
"z  c #616F29",
"x  c #6A6324",
"c  c #5E5144",
"v  c gray36",
"b  c #725541",
"n  c #447D40",
"m  c #566356",
"M  c #737658",
"N  c #5F5F60",
"B  c #676666",
"V  c #6A6A6A",
"C  c #706760",
"Z  c #7C6E64",
"A  c #975C0C",
"S  c #844D13",
"D  c #8C4E18",
"F  c #995917",
"G  c #995718",
"H  c #93561A",
"J  c #B8760A",
"K  c #AB6613",
"L  c #C37D04",
"P  c #C57810",
"I  c #816A5B",
"U  c #837E7C",
"Y  c #817973",
"T  c #158415",
"R  c #168A16",
"E  c #178318",
"W  c #198519",
"Q  c #1B8B1B",
"!  c #179117",
"~  c #1D941D",
"^  c #1E9A1E",
"/  c #248E1D",
"(  c #209A1F",
")  c #1F9220",
"_  c #208D20",
"`  c #3D8225",
"'  c #358C23",
"]  c #3C8B24",
"[  c #3C8E2B",
"{  c #239523",
"}  c #249C24",
"|  c #289D27",
" . c #2A962A",
".. c #279E28",
"X. c #2A9D29",
"o. c #34952A",
"O. c #349B2C",
"+. c #399C2E",
"@. c #3C823C",
"#. c #329D32",
"$. c #399D30",
"%. c #399139",
"&. c #26A226",
"*. c #28A427",
"=. c #26A927",
"-. c #27A428",
";. c #2BA42B",
":. c #27A928",
">. c #2DAA2D",
",. c #30A52E",
"<. c #30AC2F",
"1. c #3AA32E",
"2. c #2EB12E",
"3. c #2FA630",
"4. c #2FAB30",
"5. c #31A531",
"6. c #39A633",
"7. c #32AB32",
"8. c #38AE37",
"9. c #37AA38",
"0. c #39AC39",
"q. c #3DA03D",
"w. c #2FB130",
"e. c #34B134",
"r. c #3AB23A",
"t. c #6C8B1F",
"y. c #448327",
"u. c #478A2D",
"i. c #529F2C",
"p. c #47A52B",
"a. c #45A53C",
"s. c #4A964B",
"d. c #499A49",
"f. c #43A142",
"g. c #41AC41",
"h. c #49A949",
"j. c #49A249",
"k. c #42B242",
"l. c #53A353",
"z. c #59A659",
"x. c #649D63",
"c. c #738D73",
"v. c #769F76",
"b. c #858A14",
"n. c #A8840E",
"m. c #C7830E",
"M. c #C98206",
"N. c #DA890C",
"B. c #D4860A",
"V. c #DA9E0C",
"C. c #CB9E11",
"Z. c #D99E13",
"A. c #EA960A",
"S. c #EE9B0A",
"D. c #F39C05",
"F. c #F29C09",
"G. c #E1971A",
"H. c #F5A00D",
"J. c #F8A618",
"K. c #F5A311",
"L. c #E5A125",
"P. c #F9AF2C",
"I. c #F5A925",
"U. c #FBB334",
"Y. c #FCB73B",
"T. c #83807E",
"R. c #FEBC46",
"E. c #FFBC48",
"W. c #838383",
"Q. c #808980",
"!. c #8C8C8C",
"~. c #8B9D8B",
"^. c #939393",
"/. c #989796",
"(. c #9B9B9B",
"). c #949994",
/* pixels */
"{ {  .} -.} ^ ! Q ) =.=.} {  . .} #.R { &.&.} 5. .X.{ ( }  .} } { ..&.;.} ;.{ _ Q { } { } ;.} } } |  .} ;._ X.| ,.=.} T ",
" .r.r.;.-.<.X.^ ;.7.7.=.-.;.{ 5.;.4.7.4.;.;.-.<.8.X.-.7.>.;.;.8.e.w.>.;. .X.X.5.;.&.-.*.7.X.*.>.} X.5.-.>.>.7.7.8.7.7.W ",
" .8.e.;.-.>.;.-.5.7.;.;.;.;.} *.>.X.7.;.&.-.5.9.;.} *.7.>.;.0.7.*.;.;.X.7.;.5.5.>.-.} *.7.7.7.-.;.;.X.;.7.;.>.;.=.<.7.R ",
"} >.>.3.;.>.;.5.} *...4.8.>.7.*.0.9.5.{ } >.5.;.;.*.-.7.7.*.;.9.~ } 8.;.;.;.X.;. .;.:.8.7.} >.&.-.9.<.8.&.X.9.;.*.8.w.R ",
";.*.-.>.;.5.-.} >.>.X.-.7.>.} 4.5.7.;.3.3.;.5.{ *.*.-.;.} } } >.5.X.9.;.>.8.} >.;.7.-.5.9.-.} &.&.>.;.5.6.;.>.;.;.>.=.T ",
" .-.} -.X...;.<.;.-.;.7.7.} -.7.d.s.#.5.7.} 9.9.9.8.9.<.3.X.*.5.7.>.*.4.;.9.*.>.>.;.;.-.9.-.-.>.>. .X.7.-.5.w.>.>.7.>.T ",
"{ X.*. .7.>.-.9.5.} { X.8.>.e.q.c.W.c.s.@.%.5. .>.7.0.>.;.8.<.4.9.*.} } } 7.*.;.7.-...} ..>.2.4.X. .;.>.7.7.7.X._ >.9.= ",
") 8.7.e.4.>.;.6.{ -.#.0.;.d.c.^.(./.W.W.V v m  .>.8.=.e.;.} 5.*.;. .&.} >.7.>.*.;.e.;.&./ Q ..r.7.7.;.*.} 0.8.w.;.5.<.Q ",
"^ e.e.e.5.=.7.0.7.e.7.9.#.(.(.(.(.(.W.W.W.B v %.*.&.7.7.-.} X.} { ,.;.&.-.;.;.;.>.8.>.;.-.7.>.7.}  .*.4.6.X.7.3.>.-.5.Q ",
"} >.;.*.4.-.>.X.8.3.#.d.x.^./.(.(.(.!.W.W.W.N n X.-.r.>.=.&.X.;.>.&.-.} ;.5.;.3.e.7.8.7.-.7.*.<.>.;.3.7.7.7.*.;.>.&.{ Q ",
") >.*.>.9.;.7.) 9.;.v.(.!.W.^.(.(.(.(.^.W.W.B c : =.X.;.-.7.;.>.>.&.e.8.;.>.=.-.e.e.8.7.;.>.7.8.9.=.4.0.0.7...5.7.;.7.T ",
"} 7.;.4.3.;.7.} 7.0.(.!.W.W.!.(.(.(.(./.W.W.V t < O.;.;.-.} >.;.-.7.>.7.-.} >.&.5.-.X.<.7.9.5.;.>.>.*.3.;.9.7.;.} 7.;.W ",
" .7.*.>.>.} ;.6. .~.(.W.W.!.!.(.(.(.(./.W.W.C @ O 3 } 5.7.*.4.} >.>.7.;.3.=.} &.>.,.5.;.;.;.X.&.&.;.&.-.X.>.;.;.&.4.;.E ",
"X.( } &.>.*.;.7.l.(.^.^.(.!.!.(.(.(.^.W.W.T.a O O O > 7.8.=.=.&.) -.} -.7.;.>.=.;.-.7.-.;...&.;.3.*.;.;.} X.;.3.X.;.&.= ",
"{ 7.<.^ 3.5.7.7.l.(.^.(.(.(.!.(.(.(.!.W.T.b O O O O + O.&.~ *.} } 4.*.*.*.>.>.>.,.X.,.-.>.&.) >.>.*.-.-.-.9.7.X.;.>.-.T ",
" .-.7.} ;.7.;.>.j.(.^.(.(.(.(.(.(.(.!.T.a O O O O O O 5 -.*.&.&.*.>.&.{ X.} 8.7.;.;.5.;.^ 9.=.-.} 8.7.7.&.7.;.=.-.;.;.E ",
"} &.~ &.7.>.>.>.z.(.(.(.(.(.(.(.(./.U t   O O @ O O O O d 3.} ../ =.>.*...*.>.;.5.7.-.*.} ;.7.} =.9.5.X.8.e.;.9.>.>.>.! ",
"X.} =.&.X.} &.*.k.~.(.(.(.(.(.(.!.Z %   O @ $ 8 @ O O O % #.>.3.;.^ &.;.;.3.X.7.;.3...7.*.8.e.&.} ;.3.*.8.7.-.-.>.>.2.! ",
"X.-.*.} } 5.;. .>.h.~.(.(.(.(.Y b + O   % $ 8 8 8 @ O O O , } >.>.Q ..;.0.7.&.;.} 7.>.e.>.<.*.-.-.} *.} ;.8.=.} >.e.8.Q ",
" .5.9.} -.>.7.>.-.5.7.d.M I b + O O O   % 8 8 8 8 8 @ O O . h } *.>.;.<.>.4.>.=.>.} } &.>.7.}  .;.} &.~ ;.;.>.>.e.*.;.R ",
"{ <.;.&.&.>.8.4.,.5.5.5.o.< O O @ @ $ $ 8 8 8 8 8 8 8 @ O   X ' X.7.>.&.*.7.=.>.;.&.} } &.3.-.7.X.*.>.&.&.} 2.>.r.*.&.T ",
"&.;.e.&.8.e.7.7.5.5.;.9.} o.u 8 8 8 7 $ S 8 8 8 8 8 8 $ O   X 2 ;.;.e.>.;.X.~ >.e.X.;.4.5.} &.e.>.e.>.} ) 3.e.>.;.-.3.= ",
"} 7.8.*.;.*.;.X.&.*.*.;.;.6.a.p 8 8 $ $ $ 8 8 8 8 8 8 8 $   X X d r.9.} { >.*.e.2.e.>.&.>.) >.4.=.w.2.>.>.} 7.;.{ *.>.{ ",
"&.=.*.>.>.} 7.7.5.&.~ } 5.0.9.O.u 8 # 8 D $ D $ $ D 8 8 8 X + + + [ e.;.} 7.5.8.e.} &.-.&...e.} } 2.e.e.7.} >.7.>.;.X.R ",
"} } / =.>.X.-.5.&.} >.e.;.5.;.>.5.y @ 8 8 8 $ D 8 8 8 8 $ $ $ % O 2 6.7.} ..6.-.*.>.=.-.w.7.*.) } 7.4.7.>.4.;.X.;.7.&.= ",
"X.9.-.=.} -.5.&.*.5.9.>.;.5.;.<.X.#.r 8 8 8 8 8 8 8 8 8 8 % 8 @ O O s 8.} { -.....>.-.*.7.w.-.*.*.7.e.e.e.7.4.*.;.} &.E ",
"X.9.>.;.*.9.X.*.>.>.7.>.*.7.7.7.4.>.q.f 8 8 8 8 8 $ D 8 $ $ 8 8 @ + X u.>.>.&.,.7.&.-.9.8.:.} *.=.:.2.*.;.7.X.-.-.>.;.R ",
" .>.&.{ ;.X.;.7.&.X.7.7. .;.:.>.7.;.3.#.l 8 $ D D $ % D $ 8 8 8 7 O X < ;.>.7.*.8.>.{ 4.7.-.>.} 7.7.2.>.>.4.&.;.8.*.&.R ",
" .X.>. .4.>.;.-.>.*.4.X.X.9.:.X.;.*.;.4.<.f 8 $ 8 8 8 8 $ 8 8 8 8 7 + . 3 >.*.7.>.=.....4.=.} 4.r.>.>.&.>.>.7.5.7.-.X.Q ",
"W -.{ X.7.*.;.&.>.e.7.-.;.e.e.7.4.>.9.;.5.,.j S 8 8 8 $ $ 8 8 8 8 8 $ X . ` } *.=.>.( ..>.>.;.r.7.;.} e.2.2.} } *. .>.Q ",
"} >.} 5.8.4.7.8.&.7.;.7.7.e.:.8.8.;.3.>.<.X.0.j 8 8 8 $ 8 8 8 8 8 8 8 X X . $.7.9.&.} &.&.&.8.>.>.-.;.;.;.r.;.} -.X.=.~ ",
"^ =.-.X.-.>.;.7.5.;.;.e.7.} ) } *.-...} X.#.X.q.k 8 8 7 8 8 8 8 8 8 8 @ + + 5 9.;.7.>.} ) 3.4.;.;.^ &.;.4.;.;.} 5.r.>.R ",
"} e.7.} ;.,.&.7.&.X.7.r.7...7...} } &.&.7. . .7.8.j 7 7 S 8 8 8 8 8 8 $ $ O O g 9.-.7.&.-.} -.X.-.Q _ X.e.>.*.4.;.9.8.R ",
";.;.;.5.9.-.-.>.{ 5.;.7.;.;.X.*.&.&.*.7.} 4.<.5.>.8.y.0 8 8 8 8 8 8 $ $ 8 % O O o.9.7.-.X.-.;.5.>. .-...2.} ;.>.>.0.e.R ",
"#.;.;.,.*.} &.7.7.X.&.>.} } *.>.>.>.r.4.) ;.9.7...} &.u.0 8 8 8 8 8 $ 8 8 S @ O , O.;.} -.>.7.7.;.4.&.~ &.>.*.5.7.e.8.T ",
"#.;.;.*.=.&.<.&.} >.&.*.} } >.4.>.=.=.>.=.;.>.} { | &.-.y.0 8 8 8 8 $ 8 8 8 8 O X t.;.;.,.;...{ &.;.&.&.&.>.*.4.;.7.>.T ",
"^ -...>.;.>.>.>.&.>.:.>.) &.*.e.e...! } ~ >.>.>.*.-.&.;.;.` 9 8 8 $ $ 8 8 G P J A J i.7.4.} ( } >.&.*.>.( / -.;.7.;.} * ",
"} ;.>.7.>.=.>.>.*.} &.=.=.-.>.X.9.8. .*.>.e.2.>.} ;.;.7.^ 7.] 0 S $ 7 8 D S.D.D.B.L n.1.>.} *.=.>.&.*.=.>.;.X.9.7.7.&.T ",
";.;.;.r.7.>.e.} ;.X.&.} ;.>.>.<.7.X.} >.2.:.} } ;.<.>.;.} } ;.' 9 $ 8 8 K D.F.P.I.M.L b.>.>.>.>.*.} -.>.>.>.&.>.>.{ { * ",
"} ;.<.>.<.7.<.*.>.5.7.} } &.} 5.7.5.} } ;.>.&.7.&.;.&.5.9.| X. .@.9 8 8 F F.U.E.R.L.L J ] 4.>.8.-.-.;.-.} &.7.;.} =.&.T ",
" .&.>.-.>.&.} 8.-.5.9.X.&.=...&.} 5.} X.>.>.;.7.7.7.{ ..5.9.X.-...[ i F B.D.U.R.R.R.m.q 2 ;.7.>.*.-.=.-.7.-.>.=.*.;.8.Q ",
";.5.-.>.=.} X.7.{ X.7.8.} { -.7.=.) &.5.X...&.r.>.*.>.>.5.9.*.9.,.;.p.Z.F.D.K.Y.R.R.G.S X 4 >.*.w.<.*.*.5.;.*.>.;.,.;.T ",
"{ ;.&.4.w.4.} *.5.0.8.;.;.5.8.:.>.&.} 5.7.>.&.>.} } =.2.7.;.-.;.5.9.>.p.V.D.D.J.Y.P.S.A . . y.:.;.<.&.;.5.7.>.>.*.;.;.= ",
" .5.&.} >.7.-.;.0.5...} 3.7.;.~ ) &.} -.7.*.=.>.;.{ e.e.4.8.7.;.6.9.7.-.p.C.N.K N.H.A.S . X 6 / -.>.&.-.7.>.=.&.&.r.9.= ",
"} 7.5.3.} *.4.} 8.7.;.5.X.;.X. .X.-.6.3.;...-.&.>.3.7.4.e.7.2.*.4.7.} ) >.6.x 8 8 H D $ . X + 3 } >.=.>.=.} *.>.3.7.9.R ",
"} *.X.;.} 7.-.} >.5.>.>.>.-.*.} } -.7.;.5.r.>.=.>.8.7.4.5.>.7.>.*.8.>.>.*.} 6.x 8 8 8 @ X X X + +.>.;.&.e.}  .5.-.>.;.T ",
"X.;.-.;.&.5.0.*.-.>.=.X.>.} >.*...} <.9.g.r.7.-.;.7.*.5.5.*.;.5.;.7.>.} ~ 7.;.| x 8 8 @ O O O O o.e.5.;.>.;. .;.>.>.7.R ",
"X.;.X.5.&.<.e.;.} } >.>.:.&.^ } ;.*.} ;.7.>.4.;...&.} ;.;.*.7.5. .X.7...*.9.X.&.,.l @ 7 O O O w -.8.5.} } 7.;.-.>.7.;.R ",
" .{ -.5.8.>.>.} *.7.>.;.&.&.&.^ =.&.-.7.;.&.7.*.7.;.} } *.&.;.3.>.;.5.X.;.7.&.8.r.>.z @ O O 1 O.;.0.7.&.-.=.;.*.>.>.&.T ",
"{ 7.;.*.} ;.-.&.-.7.*.&.-.=.w.*.>.&.*.&.-.;.*.>.7.;.7.} } r.*.>.e.7.5.} X.*.&.7.0.e.<.` d ; } } } 5.9.5.8...;.7.>.=.-.T ",
" .;.;...*.7.*.} >.} ;.7.7.>.e.e.5.*...7.*.;.7.9.&.-.;.-.^ -.;.*.>.e.7.-.e.>.&.} ;.7.6.-.} } X.*.>.7.7.7.9.5.,.r.>.:.>.T ",
";.7.e.=.&.>.} ;.4. .5.r.4.;.>.e.-.;.8.*.-.-.*.7.7.&.} *.&.-.9.{ } *.5.7.;.} 7.&.} &.3.=.X.X.>.:.=.{ ;.,.7.5.;.>.>.4.r.T ",
"-.e.;.-.7.>.;.;.7.7.>.8.4.&.&.{ -.7.-.7.3.>.>.*.7.>.>.3.7.r.&.&.-.-.*.>.;.-.5.;.,.{ &.e.*.=.>.>.7.=.&.e.&.7.-.>.;.7.&.R ",
"{ >.>.7.;.>.;.&.>.>.=.;. .-.>.} ;.>.5.e.r.8.>.} 7.3.>.*.>.>.r.8.X.Q 7.9.7.=.;.;.&.7.>.:.&.;.e.7.;.=.&.>.8.-.X.;.} ;.*.E ",
"*.e.=.*.-.>.4.3.2.;.;.5.-.;.*.8.5.<.7.;.7.r.8.;.5.4.;.;.=.>.;.r.7.;.7.*.7.*.7.*.} *.;.>.=.&.X.*.7.;.*.4.7.X.&.>.4.7.7.! ",
"-.8.7.;.;.7.;.7.8...{ 5.;.} &.;.;.5.;.9.;.4.7.8.7.7.;.5.;.4.;.7.;.,.4.;.-.4.;.X.&.7.7.7.=.>.X.} 7.>.7.} 9.X.5.;.;.;.7.{ ",
"O.7.4.} ;.;.7.>.;.;.} ..{ -.*.&.;.<.-.7.-.>.;.7.7.;.>.8.7.{ >.*.>.&.;.;.-.7.9.5.4.r.9.8.e.;.} { <.&.=.7.>.r.r.7.7.} ..} ",
";.7.;.*.5.;.;.7.X.r.;.{ X.;.8.e.;.>.>.7.>.>.^ -.-. .3.4.7.>.7.7.4.>.>.7.7.5.X.7.3.7. .-.r.7.} X.>.>.;.-.>.7.8.>.>.&.,.W ",
"} -.:.:.} ,.4.>.r.r.7.X. .*.>.e.;.-.&.;.&.;.>.>.{ ;.X.5.;.;.-.4.>.*.-. .;.*. .5.r.>.-.;.7.7.;.*.;.r.>.*.2.7.7.;.*.-.;.Q ",
"T R E - W R _ Q R Q _ Q T T R T W T = = / W R R R W T - T T R E W W _ R R T _ Q Q = R T Q ~ R W W Q R ! R W R E E R T & "
};
