/* XPM */
static char *result[] = {
/* columns rows colors chars-per-pixel */
"60 60 256 2 ",
"   c #050402",
".  c #0A0603",
"X  c #0C0A05",
"o  c #0E0D09",
"O  c #060902",
"+  c #120B06",
"@  c #190E07",
"#  c #110E09",
"$  c #1A0F08",
"%  c #0D1205",
"&  c #0D1908",
"*  c #14120C",
"=  c #1B130B",
"-  c #171A0A",
";  c #171611",
":  c #191611",
">  c #1C1B14",
",  c #1F1D19",
"<  c #23140B",
"1  c #2C1A0E",
"2  c #26190C",
"3  c #221E16",
"4  c #211E19",
"5  c #2C1D11",
"6  c #341E11",
"7  c #092703",
"8  c #142609",
"9  c #15370A",
"0  c #15310C",
"q  c #232216",
"w  c #24221C",
"e  c #29261D",
"r  c #2B291E",
"t  c #272917",
"y  c #332113",
"u  c #3C2514",
"i  c #253B1B",
"p  c #3E3914",
"a  c #272521",
"s  c #292721",
"d  c #2C2A23",
"f  c #2E2C28",
"g  c #312D24",
"h  c #302E28",
"j  c #2A3527",
"k  c #343126",
"l  c #35332B",
"z  c #39352C",
"x  c #393A2C",
"c  c #3C3B32",
"v  c #393731",
"b  c #263536",
"n  c #462716",
"m  c #4A331D",
"M  c #57331D",
"N  c #65351E",
"B  c #4C3A26",
"V  c #423E34",
"C  c #453E35",
"Z  c #5B3A23",
"A  c #653C24",
"S  c #733D23",
"D  c #0D4706",
"F  c #1C5A15",
"G  c #15500C",
"H  c #23451A",
"J  c #394716",
"K  c #285C1B",
"L  c #364C17",
"P  c #0B6605",
"I  c #197912",
"U  c #12730A",
"Y  c #26681B",
"T  c #377512",
"R  c #29700F",
"E  c #384629",
"W  c #2E4E25",
"Q  c #327127",
"!  c #1E4A23",
"~  c #5A4228",
"^  c #48443A",
"/  c #544635",
"(  c #43532D",
")  c #694329",
"_  c #77472B",
"`  c #795436",
"'  c #785030",
"]  c #516B2A",
"[  c #6D7331",
"{  c #407209",
"}  c #384544",
"|  c #4C4A41",
" . c #504E44",
".. c #595449",
"X. c #5C5A50",
"o. c #67584A",
"O. c #756954",
"+. c #6E7368",
"@. c #5C7663",
"#. c #86492D",
"$. c #885636",
"%. c #985A38",
"&. c #8E4F32",
"*. c #A55834",
"=. c #9A623D",
"-. c #A5653C",
";. c #B7633D",
":. c #A27F3C",
">. c #C06F3A",
",. c #966748",
"<. c #916E51",
"1. c #A86948",
"2. c #BB6A45",
"3. c #AE7048",
"4. c #B7774C",
"5. c #A77A5A",
"6. c #B57A54",
"7. c #AA6B55",
"8. c #817C6A",
"9. c #A87E66",
"0. c #C87648",
"q. c #D4794B",
"w. c #CA7852",
"e. c #CA6F4B",
"r. c #0C8B09",
"t. c #13850C",
"y. c #009C00",
"u. c #0D940A",
"i. c #079504",
"p. c #15980C",
"a. c #1A8B12",
"s. c #189613",
"d. c #2E9014",
"f. c #01A401",
"g. c #00AC00",
"h. c #0BAD06",
"j. c #0AA608",
"k. c #12A40D",
"l. c #14AC09",
"z. c #00B300",
"x. c #0AB406",
"c. c #00BB00",
"v. c #0DB909",
"b. c #12B311",
"n. c #15B00F",
"m. c #37B510",
"M. c #2DA424",
"N. c #4EAE16",
"B. c #539222",
"V. c #67922C",
"C. c #4EB225",
"Z. c #55A51B",
"A. c #00C400",
"S. c #0BC403",
"D. c #00CB00",
"F. c #09CA04",
"G. c #0DC809",
"H. c #14C60A",
"J. c #00D400",
"K. c #0CD402",
"L. c #00DB00",
"P. c #0BDC03",
"I. c #0BD30B",
"U. c #17DA02",
"Y. c #14D716",
"T. c #24D805",
"R. c #37C815",
"E. c #2DCA0B",
"W. c #00E400",
"Q. c #00EC00",
"!. c #0CE402",
"~. c #15E800",
"^. c #00F300",
"/. c #00FC00",
"(. c #08F602",
"). c #13FE00",
"_. c #1BFC00",
"`. c #16F603",
"'. c #15F518",
"]. c #27E901",
"[. c #39EB01",
"{. c #22FE00",
"}. c #2CFE01",
"|. c #28F200",
" X c #3BFD00",
".X c #37F900",
"XX c #27F216",
"oX c #2FD630",
"OX c #22FE2C",
"+X c #50D914",
"@X c #44EC00",
"#X c #54EB08",
"$X c #42FE01",
"%X c #49FC00",
"&X c #4CF90A",
"*X c #5DD22C",
"=X c #6DB74D",
"-X c #69A864",
";X c #3ED454",
":X c #75D360",
">X c #9AA93D",
",X c #BB8556",
"<X c #B28944",
"1X c #A98665",
"2X c #B39472",
"3X c #96B66D",
"4X c #A6A558",
"5X c #C58856",
"6X c #DB8C5C",
"7X c #D38857",
"8X c #D9945B",
"9X c #D3824E",
"0X c #D99866",
"qX c #C79C73",
"wX c #C9946C",
"eX c #E49267",
"rX c #D6A377",
"tX c #E6A66C",
"yX c #E6AB75",
"uX c #E4B078",
"iX c #E1935E",
"pX c #BBD57C",
"aX c #6E918A",
"sX c #78BEB8",
"dX c #79B0A5",
"fX c #77A79A",
"gX c #959B88",
"hX c #AF9981",
"jX c #93AA94",
"kX c #B0AF92",
"lX c #8FB8A9",
"zX c #A7BAA2",
"xX c #DBA784",
"cX c #DABA98",
"vX c #CDAF8A",
"bX c #EAB788",
"nX c #E7BB96",
"mX c #F1BB97",
"MX c #E2AF83",
"NX c #CEB9A1",
"BX c #AFC3AD",
"VX c #83C0BA",
"CX c #EDC48C",
"ZX c #ECC49A",
"AX c #EBC89B",
"SX c #F0C79A",
"DX c #D0C5AC",
"FX c #EDC6A3",
"GX c #F1CAA5",
"HX c #F2D2AB",
"JX c #E8D8B9",
"KX c #F3D8B4",
"LX c #E6CEB5",
"PX c #CFCB92",
"IX c #F6E4C8",
"UX c #F4DEC1",
/* pixels */
"z.z.Q././.A.D.J.J.D.^.^.D.A.g.z.f.L.L.}.}.(.J.L.D.D.D.z.t.G.v.^./.Q././.W.W.L.L.J.Q.Q./.`.^.W.W.D.D.^.)./.D.J.D.J.J.D.D.",
"g.z.Q././.D.A.L.J.J.^./.D.D.g.g.f.L.W.{._.^.J.J.D.A.D.W I F.n.n.H.p.S.P.I.L.L.L.L.Q.Q././.^.W.W.D.D.^._./.J.D.J.J.D.D.J.",
"g.z.A.J.L.c.c.Q.^.W.D.D.z.c.J.W.L.W.J.b.n.k.I t.j.x.r.j H a.s.K K H H K Y s.u.j.f.h.h.x.A.A.L.L.c.z.W././.Q.Q.J.J.A.g.g.",
"z.z.D.L.L.c.z././.Q.A.D.c.A.W.^.^.v.p.u.F K x x l j Y s.d.W t g r 3 e d l x H H H I p.p.A.A.L.U.z.g.Q././._./.J.J.D.g.g.",
"z.z.D.L.J.c.c././.Q.A.J.c.g.J.v.v.Q M.j > - q d l v c  .C e w e 4 5 h h l c h 4 f k t H h.x.S.!.f.g.~././.)._.J.J.A.f.f.",
"W.W.W.^.Q././.z.x.b.*XoXh.k.I 0 F W i > = = w d l l c  .| 4 = w k k g d h l l s 4 d ; - I.I.s.c.&X%XK.L.L.(.^.g.g.z.J.K.",
"W.W.W.Q.^././.g.s.s.C.B.W ^ l w * : > : w c ^ ....| l s s 3 = w c ^ C z s g l l d l 3 * P k.K I +XN.h.W.L./.^.g.g.z.J.U.",
"^.^.Q.^./.^.W.Y Y K E ^ l ; ; ; w > > e d d r w w a e 4 3 3 l c s 4 l l w > : s  .X.l > # = w V ^ a.b.a.h.Q.Q.L.W.F.y.y.",
"Q.Q.^.^./.^.v.I i e 3 s a ; > , > > s k > * 4 f f a w f d s v d = 3 h s = # ; v X. .s # + > k ....^ Y k.a.W.Q.L.L.J.f.f.",
"W.Q.W.W.W.J.u.F e e s 4 a c | l a d h ^  .s w a , , a a d c l d w z c r * X * c X.v # # : < 3 g C ..C E L c.J.A.D.c.y.i.",
"J.J.D.A.c.c.P : 4 3 4 e c c a ; X ; , > : r r 4 w a f d d | c w t l k k 3 = + 3 g : # # 4 w s k C ..o.k 4 s ! t.f.y.y.y.",
"D.J.c.f.r.u.t.8 : 3 4 3 , > , , d l h t : w w , , , ; ; = : * # @ > 3 e 4 > = e s = = : e e e r y g ^ V g g l K i.y.y.y.",
"W.P.K.Y.n.I p.G = = > 3 ; o ; * ; ; * * ; > ; ; , , w > * o X X # # > > s f w k z d g g r e e k x z g r r i K k.G.J.g.g.",
"L.L.S.p.G t f s : o # X X o X X o ; w f f a f V | C l , * o . X X X # # 3 w * * e k C k ^ ^ V r ^ V z g 3 t.p.v.a.c.g.g.",
"A.A.S.U < h C , o > h h ; * , > o ; s h f > a f a w w , : # # X X # ; > 4 , # # + * = 2 z V k q k l k g 3 + * : r Y z.A.",
"D.j.9 X > v | a o o ; w : 4 a 4 o ; w a a w , , , , , : # = + . X * h z w ; % o o o X * f k q q q , > e q - = * > q k.J.",
"c.9 # o o w v f > ; ; o o ; , , ; > 4 w , , f s f a w ; * o o X O o s c l > # o X # o # q = o > 4 ; # > ; # 3 = q 0 x.I.",
"J.P ; # X . O o ; * # X ; ; d l f , ; ; , w b f w ; ; # * > > $ ; o X ; w d s w , # o # ; X O * w , : : 3 < > 8 t.v.j.z.",
"W.L.9 * o . o o > o X ; , > > w > o X O o * , , # o o # a f 4 ; > * o . X # * : < ; X X X % # * 4 , 3 > h w : : I p.y.z.",
"Q.v.0 ; * * ; o ; * O , a w ; * ; > ; ; o . . X X . . o : 4 a f a o . . O . X # X # + o . X o # # , h k g > o o 8 r.r.^.",
"I I.i j a f , o O X . . ; w w = O . * * o X . . O . . X + # # # o     . X . X . . . o o X o o # ; w l s 4 > > 4 4 3 U W.",
"D G ; w a a ; O . . o X X X o X . O     .               . X X   .       X . .   . X X o o . X * 3 d d w * ; * ; h l l K ",
"r.& * 4 w , ; . . . o . X . X .                           . .     .     . O . . . . o # # * X X o o % # o * & * w l V x ",
"/.D.& > , ; o   . O .   O . . .   . . . .   . . . . . . .               O O . .     . ; > = X X O o o o o * ; > ; q r l ",
"g.g.r.% o X O X .   . . O O . . . .         . . X # + = 2 + X + X X X . . . . . . . . X o X X X o O O o o o > > > 4 0 a.",
"g.f.D O X o . O   .   O . . . . .           X + @ @ 2 B B = 1 m 5 @ @ + + X . X . . .   . . . O X X o O o o o ; - 0 u.W.",
"W.J.o   . X X X .   . . X . X . . . . . . . X @ B ~ $.,X,Xm 5 ) N u = y 1 % + + X .           . O X O X o * ; ; U f.J.J.",
"/.^.x.9 # o o . . .   . . # + X . . + $ u < $ 1 M A Z _ ,X8X,X=.M 1 u M M u 1 1 1 +         . . X . . X X o o & D P J.L.",
"^.^.^.F.t.G D % X O     . . . . . + @ 6 M 1 @ < < < < < M -.5X3.S 1 < @ < = < 1 n u .         . X . . . X X X X X 9 J.J.",
"D.D.D.D.A.J.L.z.P . . . .   . + + + @ M S 1 u A ` ` ) M _ -.AXCX-.N &.=.,.#.N n n ' y . . . . . . + . + X % 7 D i.z././.",
"J.D.D.A.A.J.D.j.9 + . . .   . u 3.#.n _ 0X6.7.1.=.-.6.MXbX0XHXHXq.0.6X,X#.$.%.,.5X7X4.=.=.%._ = . . . . D c.A.y.f.z.^.^.",
"L.L.L.^.Q.Q.Q.t.2 + .   .   . 1 ,X0X7X1.MXmXFXGXFXFXHXSXyX0XKXKX6X6XMXZXnXZXZXZXxXtX7X0X7X0._ @ + + X X 7 l.W.J.W.L.L.L.",
"L.L.Q.^.^.W.Q.z.U % . O .     . u ` 6.-.7.rXmXmXmXmXnXyX0X6.MXGXw.wXyXyXbXZXSXmXyX7X2.6.=.A 2 o X + + O X 9 F.L.L.L.J.J.",
"J.J.L.Q.^.W.W.A.A.c.y.P 7 . .   . . X @ A 7.eXq.2.w.eXq.w.1.S S 1.8X8X8Xq.e.w.eX6X#.@ + X . . X X X + @ G F.W.J.L.J.J.J.",
"K.L.|._.).A.J././.W.g.f.P 9 % . . . X . 6 $.7.e.*.7.%.=.%.*.*.*.*.*.%.%.-.#.2.q.;.n . . X . . o G F.y.z.c.W.L.A.A.A.J.J.",
"J.L.(.).`.D.D././.W.g.g.g.y.0 X . . . X < S 1.w.w.0X$.M $.7.9.5.9.,.,.) N &.0.-.S $ . + X X 8 t.r./.A.c.z.L.L.c.A.D.L.L.",
"g.g.y.y.y.W.W.{./.^.c.z..XE.U D 8 7 O X - J &.%.e.0XuX0.q.0.rXxXxXw.>.>.iX9X*.S 2 . . o & D p.k.j.A.W./.^.$X$XA.A.D.D.J.",
"f.g.y.y.y.W.T._./.Q.z.z..X.X|./.`.K.G.z.F.A.{ _ &.0.tXyXiXiXeXeXeXeXq.9X9X-.M I z.v.t.n.!.P.Q./.A.c.Q./.Q.$X XA.A.A.D.J.",
"L.J.z.g.g.D.S.J.L.J.J.J.F.S.z.g.g.D.A.J.L.A.g.T m ' 0.tXtXiX9X4.3.e.q.6X%.N T J.Q.L.L.F.W.L.L.L.F.D.J.J.J.h.h.z.z.c.A.A.",
"Q.Q.c.c.z.c.A.D.J.D.L.L.A.A.f.y.y.A.A.J.L.D.c.c.R p M 4.iXbXHXHXFXuX9X%.n T ~././.L.L.L.L.J.J.D.J.J.J.K.L.f.f.z.z.c.c.A.",
"Q.W.c.z.f.A.F.A.A.D.L.L.A.c.f.y.y.c.c.J.L.J.c.A.f.j.p.u u ) ' ` _ _ M u s.L.Q././.W.W.J.J.J.D.D.J.b.L.J.L.y.y.c.c.z.c.A.",
"L.W.`.'.'.z.z.^.Q.W.Q.W.J.D.Q././.W.W.L.L.D.f.g.L.W.^.[.C./ y 3 y / ] s.^.Q.D.A.A.F.L.J.J.A.g.g.g.k.L.Q.Q.g.f.Q.W.Q./.(.",
"W.L._.}.OXz.z.^.Q.W.Q.W.D.J.Q././.W.W.J.L.D.f.g.P.T.oX:XPXNXhX2X2XcXvX3X;XoXG.A.A.L.J.J.J.A.f.f.f.s.W.^.Q.g.g.Q.Q.Q./.{.",
"c.c.J.W.!.XX'.D.U.J.^.Q.D.A.L.L.L.c.c.A.A.D.L.oXcXJXzXVXJXIXBXlXzXUXkXaXaXzXGX3XY./.^.W.W.J.c.z.f.u.W././.f.f.^./.^.J.J.",
"c.c.J.P.U.%X%XS.T.J.Q.W.A.D.J.J.L.c.c.A.A.A.Y.-XvXDXlXVXJXIXBXlXzXDX+.+.@.gXcXhX=X!.Q.W.Q.L.A.c.f.u.W././.y.y././.^.J.J.",
"c.A.D.L.J..X@XF.D.J.Q.Q.D.D.D.J.D.g.z.A.A.A.oXaXqXqX+.lXJXIXBXsXzXJXgX1X@.+.xXgX-XU.!.L.W.J.z.z.g.u.J.Q.Q.x.x.Q.^.Q.L.L.",
"A.A.c.c.c.J.J.J.J.J.W.Q.W.Q.c.g.g.f.f.Q.^.Q.=X1X1X$.O.BXJXIXBXsXkXHXZXkXfXO.7XrX3X#X%XL.W.D.z.z.J.v.F.J.A. X$XL.L.W././.",
"A.A.c.c.z.J.F.J.J.J.W.Q.Q.Q.c.c.g.g.g.Q.^.W.N.` $.' ] jXZXAXkXdXkXKXSXkXjX5.<.5.[ #X$XL.Q.J.z.c.J.v.D.J.D.).$XD.L.L././.",
"c.c.c.c.c.D.D.(.[.Q.W.W./././././.^.^.g.g.g.<XxXrXqX*X<.5.wX<.@.8.wX6.O.@.V.bXGXuX*X^.J.L.A.y.y.A.k.Q././.^.^.$X%X].z.g.",
"c.c.z.c.c.L.J.W.[.W.W.W./././././././.f.g.f.5XSXCXpX#XT @ % $ @ = @ + . 2 ] AXIXSX*X/.J.J.A.f.y.x.s.Q.^././.^. X%X[.z.g.",
"c.c.z.c.c.^.^.g.j.g.c.z.F.A.Q./.^.^.^.A.J.S.>.e.>X].p.$ @ @ + + + @ M 9.LXKXrX0.8XR.W.A.c.c.D.A.L.I.J.J.J.c.c.~.~.!.W.L.",
"c.A.A.A.c./.).y.f.y.z.z.c.D.Q././.^.^.L.W.E.iXbX4Xd.8 + + @ $ < < _ cXKXIXHXuX;.-.R.W.z.c.c.J.L.^.b.W.J.L.z.f.^.Q.^.Q.^.",
"c.c.z.z.z..X.Xf.y.y.g.g.z.c.W./.^././.L.L.*XtXtX5XN % + + + X + @ 6.bXSXZXHX6X*.<XE.Q.c.c.A.J.F.^.G.J.L.D.f.g.Q.Q.Q.Q.Q.",
"{.$X@X#X[.L.W.L.W.W././.Q.Q.z.y.y.L.L.A.S.B.tX2.<XV.L 6 1 @ + + + M _ $.,.O.X./ s.W.Q.g.f.f.z.z.j.s.f.g.f.c.c.f.f.g.D.A.",
" X%X[.@X[.L.L.!.U.L././.W.~.h.f.i.L.L.A.A.A.m.V.Z.#Xd.1.qX2X<.) d.E.s.Q } } } v h.Q.^.g.f.g.z.z.f.u.f.x.g.c.A.y.f.g.D.A.",
"W.Q.z.y.y.}.}.g.z.g.c.z.A.D.W.Q.Q.A.A././.Q.z.g.J.L.z.[ 1XnXCX3.d.A.z.s.W l B O.R.^.^.^.^.W.|.(.A.A.Q./.^.J.J././.^.D.D.",
"~.^.g.f.f._..Xz.c.c.c.z.A.A.!.Q.Q.A.A././.Q.c.c.L.L.f.r.L ) <.o.Q c.c.v.-X6.,X6.C.^.^.^.`.~.@X`.A.A.^././.L.W././.^.L.J.",
"Q.Q.z.f.f./.`.S.D.A.c.c.D.J.L.W.W.c.c././.W.g.z.L.W.z.y.F b b b H c.n.>XKXIXIXnXV.L.W.W.W.W.(.^.D.A.Q.^.^.D.J.Q.Q.W.L.L.",
"W.W.c.z.z.J.D.).).^.L.J.Q.Q.J.J.D.z.c./.).].g.f.{./.K.A.x.H l ^ ( H.E.[ vXDXNX1X] x.c.A.D.D././.J.J.J.J.D.g.z.g.z.c.W.Q.",
"W.W.c.c.z.J.J.).).^.L.L.Q.!.D.J.D.c.c.{. X].g.g././.K.D.A.d.J J J d.W.b.( B C ( x.c.z.c.A.D././.L.L.J.L.D.z.x.f.g.c.Q.^."
};
